<svg width="395" height="292" viewBox="0 0 395 292" fill="none" xmlns="http://www.w3.org/2000/svg">
<g clip-path="url(#clip0)">
<path d="M168.386 198.007C168.386 198.007 220.843 191.705 239.203 181.729C257.563 171.752 393.951 167.026 393.951 198.007C393.951 228.988 237.105 242.64 237.105 242.64L154.748 237.914L168.386 198.007Z" fill="#6EA96D"/>
<path opacity="0.1" d="M168.386 198.007C168.386 198.007 220.843 191.705 239.203 181.729C257.563 171.752 393.951 167.026 393.951 198.007C393.951 228.988 237.105 242.64 237.105 242.64L154.748 237.914L168.386 198.007Z" fill="#507A4F"/>
<path d="M183.599 192.231L172.583 224.262L0 226.362V179.103C0 179.103 66.0956 163.875 118.552 196.431C118.552 196.431 180.452 189.08 183.599 192.231Z" fill="#282117"/>
<path opacity="0.1" d="M183.599 192.179L172.583 224.21L0 226.311V179.051C0 179.051 66.0956 163.823 118.552 196.38C118.552 196.38 180.452 189.028 183.599 192.179Z" fill="black"/>
<path d="M380.914 178.84C380.914 180.63 376.905 181.959 376.51 183.685C376.119 185.397 378.501 188.001 377.748 189.637C376.969 191.309 376.048 192.911 374.996 194.426C374.009 195.842 370.958 195.635 369.708 196.962C368.483 198.168 367.186 199.297 365.824 200.343C364.496 201.448 362.698 201.68 361.189 202.697C359.754 203.664 359.928 207.212 358.341 208.092C356.824 208.934 354.502 208.257 352.857 209.013C351.278 209.739 350.445 212.365 348.757 213.007C347.128 213.627 345.113 213.36 343.392 213.896C341.726 214.416 339.862 214.331 338.116 214.768C336.42 215.193 335.126 217.737 333.362 218.079C331.644 218.414 329.63 217.522 327.854 217.775C326.119 218.023 324.101 215.825 322.316 215.991C320.569 216.154 318.923 217.171 317.134 217.254C315.38 217.334 313.645 218.108 311.856 218.108C310.067 218.108 308.22 219.788 306.466 219.707C304.677 219.625 303.058 217.078 301.311 216.915C299.526 216.749 297.397 219.409 295.662 219.162C293.885 218.909 292.478 216.305 290.76 215.971C288.996 215.628 286.717 217.489 285.022 217.064C283.276 216.627 282.239 213.598 280.573 213.079C278.852 212.542 276.718 213.269 275.09 212.649C273.401 212.007 271.344 212.11 269.765 211.384C268.12 210.628 266.939 208.838 265.422 207.996C263.835 207.116 263.103 204.932 261.668 203.964C260.159 202.947 257.859 203.077 256.532 201.972C255.131 200.806 252.505 200.745 251.323 199.49C250.072 198.162 249.566 195.933 248.579 194.518C247.539 193.027 249.58 189.875 248.854 188.3C248.1 186.665 244.95 186 244.559 184.288C244.156 182.5 243.949 180.673 243.942 178.84C243.942 177.051 246.636 175.683 247.031 173.957C247.422 172.244 245.439 169.785 246.192 168.15C246.919 166.574 246.826 164.152 247.866 162.661C248.854 161.245 251.318 160.69 252.569 159.363C253.751 158.108 255.868 157.758 257.269 156.592C258.596 155.487 258.427 152.155 259.936 151.138C261.371 150.171 263.374 149.73 264.962 148.849C266.478 148.008 268.625 148.149 270.27 147.393C271.849 146.667 274.323 148.098 276.011 147.455C277.639 146.836 278.96 145.483 280.681 144.946C282.347 144.427 283.13 140.468 284.876 140.031C286.571 139.606 288.657 140.311 290.421 139.968C292.139 139.634 294.451 142.757 296.228 142.504C297.963 142.257 299.26 138.087 301.045 137.921C302.792 137.758 304.762 139.918 306.551 139.836C308.305 139.755 310.066 141.02 311.856 141.02C313.645 141.02 315.428 139.284 317.182 139.364C318.971 139.446 320.548 141.742 322.295 141.904C324.08 142.071 326.271 138.58 328.006 138.827C329.783 139.08 331.156 141.779 332.874 142.113C334.638 142.456 336.847 140.78 338.543 141.205C340.289 141.642 341.339 144.51 343.006 145.03C344.727 145.566 345.788 147.59 347.416 148.209C349.104 148.851 352.241 145.846 353.82 146.572C355.466 147.329 356.887 148.638 358.404 149.479C359.991 150.36 362.514 149.917 363.949 150.884C365.458 151.901 365.829 154.632 367.157 155.737C368.558 156.903 370.869 157.255 372.052 158.51C373.302 159.837 373.476 162.216 374.463 163.631C375.503 165.122 375.471 167.187 376.197 168.763C376.95 170.398 378.962 171.635 379.353 173.347C379.747 175.073 380.914 177.051 380.914 178.84Z" fill="#282117"/>
<path d="M191.992 211.659C191.992 211.659 251.268 181.203 289.562 192.756C327.855 204.308 381.361 184.354 387.656 191.18C393.951 198.007 402.869 271.521 327.331 275.722C251.793 279.923 187.271 263.119 187.271 263.119L191.992 211.659Z" fill="#507A4F"/>
<path d="M178.033 208.416C178.033 208.416 201.434 206.933 200.385 215.335C199.336 223.737 198.287 288.849 191.992 290.425C185.697 292 135.863 292 115.405 292H0V191.331C0 191.331 81.8327 186.454 122.749 206.933C122.749 206.933 171.942 206.223 178.033 208.416Z" fill="#282117"/>
<path d="M287.663 50.9557C285.427 51.0821 283.27 51.8295 281.435 53.1142C279.599 54.3989 278.158 56.1699 277.271 58.2288C274.673 64.5163 278.019 71.9019 283.041 76.4868C288.064 81.0717 294.515 83.6924 300.377 87.1371C308.251 91.7639 315.326 98.1867 319.265 106.431C323.205 114.676 323.624 124.889 318.993 132.765C314.695 140.076 306.88 144.451 299.426 148.487" stroke="#3F3D56" stroke-miterlimit="10"/>
<path d="M308.646 12.6232C306.41 12.7496 304.253 13.4971 302.418 14.7817C300.582 16.0664 299.141 17.8374 298.254 19.8963C295.656 26.1838 299.001 33.5694 304.024 38.1543C309.046 42.7392 315.498 45.3599 321.36 48.8046C329.234 53.4314 336.309 59.8542 340.248 68.0989C344.188 76.3435 344.607 86.5563 339.976 94.4327C335.678 101.743 327.862 106.119 320.408 110.154" stroke="#3F3D56" stroke-miterlimit="10"/>
<path d="M377.635 21.4394C375.79 20.1691 373.628 19.4385 371.391 19.3296C369.154 19.2206 366.931 19.7376 364.971 20.8225C359.071 24.2018 357.2 32.092 358.367 38.7951C359.535 45.4983 363.033 51.5241 365.562 57.8401C368.958 66.3235 370.625 75.7377 368.698 84.6711C366.771 93.6045 360.856 101.937 352.378 105.327C344.508 108.474 335.653 107.144 327.291 105.767" stroke="#3F3D56" stroke-miterlimit="10"/>
<path d="M316.839 100.683C323.792 100.683 329.429 97.9421 329.429 94.5615C329.429 91.1809 323.792 88.4403 316.839 88.4403C309.886 88.4403 304.25 91.1809 304.25 94.5615C304.25 97.9421 309.886 100.683 316.839 100.683Z" fill="#507A4F"/>
<path d="M315.266 99.6325C322.219 99.6325 327.855 96.892 327.855 93.5113C327.855 90.1307 322.219 87.3901 315.266 87.3901C308.313 87.3901 302.676 90.1307 302.676 93.5113C302.676 96.892 308.313 99.6325 315.266 99.6325Z" stroke="#3F3D56" stroke-miterlimit="10"/>
<path d="M344.117 95.4317C351.07 95.4317 356.707 92.6911 356.707 89.3105C356.707 85.9299 351.07 83.1893 344.117 83.1893C337.164 83.1893 331.527 85.9299 331.527 89.3105C331.527 92.6911 337.164 95.4317 344.117 95.4317Z" fill="#507A4F"/>
<path d="M342.543 94.3815C349.496 94.3815 355.133 91.6409 355.133 88.2603C355.133 84.8797 349.496 82.1391 342.543 82.1391C335.59 82.1391 329.953 84.8797 329.953 88.2603C329.953 91.6409 335.59 94.3815 342.543 94.3815Z" stroke="#3F3D56" stroke-miterlimit="10"/>
<path d="M348.313 118.536C355.266 118.536 360.903 115.796 360.903 112.415C360.903 109.034 355.266 106.294 348.313 106.294C341.36 106.294 335.724 109.034 335.724 112.415C335.724 115.796 341.36 118.536 348.313 118.536Z" fill="#507A4F"/>
<path d="M346.74 117.486C353.693 117.486 359.329 114.745 359.329 111.365C359.329 107.984 353.693 105.244 346.74 105.244C339.787 105.244 334.15 107.984 334.15 111.365C334.15 114.745 339.787 117.486 346.74 117.486Z" stroke="#3F3D56" stroke-miterlimit="10"/>
<path d="M345.691 60.7749C352.644 60.7749 358.28 58.0344 358.28 54.6537C358.28 51.2731 352.644 48.5325 345.691 48.5325C338.738 48.5325 333.101 51.2731 333.101 54.6537C333.101 58.0344 338.738 60.7749 345.691 60.7749Z" fill="#507A4F"/>
<path d="M344.117 59.7247C351.07 59.7247 356.707 56.9842 356.707 53.6035C356.707 50.2229 351.07 47.4823 344.117 47.4823C337.164 47.4823 331.527 50.2229 331.527 53.6035C331.527 56.9842 337.164 59.7247 344.117 59.7247Z" stroke="#3F3D56" stroke-miterlimit="10"/>
<path d="M314.216 57.0992C321.17 57.0992 326.806 54.3587 326.806 50.978C326.806 47.5974 321.17 44.8568 314.216 44.8568C307.263 44.8568 301.627 47.5974 301.627 50.978C301.627 54.3587 307.263 57.0992 314.216 57.0992Z" fill="#507A4F"/>
<path d="M312.643 56.049C319.596 56.049 325.232 53.3085 325.232 49.9278C325.232 46.5472 319.596 43.8066 312.643 43.8066C305.69 43.8066 300.053 46.5472 300.053 49.9278C300.053 53.3085 305.69 56.049 312.643 56.049Z" stroke="#3F3D56" stroke-miterlimit="10"/>
<path d="M328.38 43.9717C335.333 43.9717 340.969 41.2311 340.969 37.8505C340.969 34.4698 335.333 31.7293 328.38 31.7293C321.427 31.7293 315.79 34.4698 315.79 37.8505C315.79 41.2311 321.427 43.9717 328.38 43.9717Z" fill="#507A4F"/>
<path d="M326.806 42.9214C333.759 42.9214 339.396 40.1809 339.396 36.8003C339.396 33.4196 333.759 30.6791 326.806 30.6791C319.853 30.6791 314.216 33.4196 314.216 36.8003C314.216 40.1809 319.853 42.9214 326.806 42.9214Z" stroke="#3F3D56" stroke-miterlimit="10"/>
<path d="M359.329 46.5972C366.282 46.5972 371.919 43.8566 371.919 40.476C371.919 37.0953 366.282 34.3548 359.329 34.3548C352.376 34.3548 346.74 37.0953 346.74 40.476C346.74 43.8566 352.376 46.5972 359.329 46.5972Z" fill="#507A4F"/>
<path d="M357.756 45.547C364.709 45.547 370.345 42.8064 370.345 39.4258C370.345 36.0451 364.709 33.3046 357.756 33.3046C350.803 33.3046 345.166 36.0451 345.166 39.4258C345.166 42.8064 350.803 45.547 357.756 45.547Z" stroke="#3F3D56" stroke-miterlimit="10"/>
<path d="M382.41 63.9256C389.363 63.9256 395 61.185 395 57.8044C395 54.4237 389.363 51.6832 382.41 51.6832C375.457 51.6832 369.821 54.4237 369.821 57.8044C369.821 61.185 375.457 63.9256 382.41 63.9256Z" fill="#507A4F"/>
<path d="M380.837 62.8754C387.79 62.8754 393.426 60.1348 393.426 56.7542C393.426 53.3735 387.79 50.633 380.837 50.633C373.884 50.633 368.247 53.3735 368.247 56.7542C368.247 60.1348 373.884 62.8754 380.837 62.8754Z" stroke="#3F3D56" stroke-miterlimit="10"/>
<path d="M301.102 33.4696C308.055 33.4696 313.692 30.7291 313.692 27.3484C313.692 23.9678 308.055 21.2272 301.102 21.2272C294.149 21.2272 288.513 23.9678 288.513 27.3484C288.513 30.7291 294.149 33.4696 301.102 33.4696Z" fill="#507A4F"/>
<path d="M299.529 32.4194C306.482 32.4194 312.118 29.6789 312.118 26.2982C312.118 22.9176 306.482 20.177 299.529 20.177C292.575 20.177 286.939 22.9176 286.939 26.2982C286.939 29.6789 292.575 32.4194 299.529 32.4194Z" stroke="#3F3D56" stroke-miterlimit="10"/>
<path d="M308.971 13.5157C315.924 13.5157 321.56 10.7752 321.56 7.39454C321.56 4.0139 315.924 1.27335 308.971 1.27335C302.018 1.27335 296.381 4.0139 296.381 7.39454C296.381 10.7752 302.018 13.5157 308.971 13.5157Z" fill="#507A4F"/>
<path d="M307.397 12.4655C314.35 12.4655 319.987 9.72498 319.987 6.34434C319.987 2.9637 314.35 0.223145 307.397 0.223145C300.444 0.223145 294.807 2.9637 294.807 6.34434C294.807 9.72498 300.444 12.4655 307.397 12.4655Z" stroke="#3F3D56" stroke-miterlimit="10"/>
<path d="M381.886 28.2186C388.839 28.2186 394.475 25.478 394.475 22.0974C394.475 18.7167 388.839 15.9762 381.886 15.9762C374.933 15.9762 369.296 18.7167 369.296 22.0974C369.296 25.478 374.933 28.2186 381.886 28.2186Z" fill="#507A4F"/>
<path d="M380.312 27.1684C387.265 27.1684 392.902 24.4278 392.902 21.0472C392.902 17.6665 387.265 14.926 380.312 14.926C373.359 14.926 367.722 17.6665 367.722 21.0472C367.722 24.4278 373.359 27.1684 380.312 27.1684Z" stroke="#3F3D56" stroke-miterlimit="10"/>
<path d="M265.956 76.528C272.909 76.528 278.546 73.7875 278.546 70.4068C278.546 67.0262 272.909 64.2856 265.956 64.2856C259.003 64.2856 253.367 67.0262 253.367 70.4068C253.367 73.7875 259.003 76.528 265.956 76.528Z" fill="#507A4F"/>
<path d="M264.382 75.4778C271.336 75.4778 276.972 72.7372 276.972 69.3566C276.972 65.976 271.336 63.2354 264.382 63.2354C257.429 63.2354 251.793 65.976 251.793 69.3566C251.793 72.7372 257.429 75.4778 264.382 75.4778Z" stroke="#3F3D56" stroke-miterlimit="10"/>
<path d="M309.495 73.3774C316.448 73.3774 322.085 70.6369 322.085 67.2562C322.085 63.8756 316.448 61.135 309.495 61.135C302.542 61.135 296.906 63.8756 296.906 67.2562C296.906 70.6369 302.542 73.3774 309.495 73.3774Z" fill="#507A4F"/>
<path d="M307.922 72.3272C314.875 72.3272 320.511 69.5866 320.511 66.206C320.511 62.8254 314.875 60.0848 307.922 60.0848C300.969 60.0848 295.332 62.8254 295.332 66.206C295.332 69.5866 300.969 72.3272 307.922 72.3272Z" stroke="#3F3D56" stroke-miterlimit="10"/>
<path d="M366.673 78.1033C373.626 78.1033 379.263 75.3628 379.263 71.9821C379.263 68.6015 373.626 65.8609 366.673 65.8609C359.72 65.8609 354.084 68.6015 354.084 71.9821C354.084 75.3628 359.72 78.1033 366.673 78.1033Z" fill="#507A4F"/>
<path d="M365.1 77.0531C372.053 77.0531 377.689 74.3126 377.689 70.9319C377.689 67.5513 372.053 64.8107 365.1 64.8107C358.147 64.8107 352.51 67.5513 352.51 70.9319C352.51 74.3126 358.147 77.0531 365.1 77.0531Z" stroke="#3F3D56" stroke-miterlimit="10"/>
<path d="M336.248 80.2037C343.201 80.2037 348.838 77.4632 348.838 74.0825C348.838 70.7019 343.201 67.9613 336.248 67.9613C329.295 67.9613 323.659 70.7019 323.659 74.0825C323.659 77.4632 329.295 80.2037 336.248 80.2037Z" fill="#507A4F"/>
<path d="M334.675 79.1535C341.628 79.1535 347.264 76.413 347.264 73.0323C347.264 69.6517 341.628 66.9111 334.675 66.9111C327.722 66.9111 322.085 69.6517 322.085 73.0323C322.085 76.413 327.722 79.1535 334.675 79.1535Z" stroke="#3F3D56" stroke-miterlimit="10"/>
<path d="M338.347 27.6935C345.3 27.6935 350.936 24.9529 350.936 21.5723C350.936 18.1917 345.3 15.4511 338.347 15.4511C331.394 15.4511 325.757 18.1917 325.757 21.5723C325.757 24.9529 331.394 27.6935 338.347 27.6935Z" fill="#507A4F"/>
<path d="M336.773 26.6433C343.726 26.6433 349.363 23.9027 349.363 20.5221C349.363 17.1415 343.726 14.4009 336.773 14.4009C329.82 14.4009 324.183 17.1415 324.183 20.5221C324.183 23.9027 329.82 26.6433 336.773 26.6433Z" stroke="#3F3D56" stroke-miterlimit="10"/>
<path d="M284.316 60.2498C291.269 60.2498 296.906 57.5093 296.906 54.1286C296.906 50.748 291.269 48.0075 284.316 48.0075C277.363 48.0075 271.726 50.748 271.726 54.1286C271.726 57.5093 277.363 60.2498 284.316 60.2498Z" fill="#507A4F"/>
<path d="M282.742 59.1996C289.695 59.1996 295.332 56.4591 295.332 53.0784C295.332 49.6978 289.695 46.9572 282.742 46.9572C275.789 46.9572 270.153 49.6978 270.153 53.0784C270.153 56.4591 275.789 59.1996 282.742 59.1996Z" stroke="#3F3D56" stroke-miterlimit="10"/>
<path d="M291.66 83.8794C298.613 83.8794 304.25 81.1389 304.25 77.7582C304.25 74.3776 298.613 71.6371 291.66 71.6371C284.707 71.6371 279.07 74.3776 279.07 77.7582C279.07 81.1389 284.707 83.8794 291.66 83.8794Z" fill="#507A4F"/>
<path d="M290.086 82.8292C297.039 82.8292 302.676 80.0887 302.676 76.708C302.676 73.3274 297.039 70.5869 290.086 70.5869C283.133 70.5869 277.497 73.3274 277.497 76.708C277.497 80.0887 283.133 82.8292 290.086 82.8292Z" stroke="#3F3D56" stroke-miterlimit="10"/>
<g opacity="0.3">
<path opacity="0.3" d="M291.953 119.554C293.73 116.371 294.054 113.166 292.677 112.396C291.3 111.625 288.743 113.581 286.966 116.764C285.189 119.947 284.865 123.152 286.242 123.922C287.619 124.693 290.176 122.737 291.953 119.554Z" fill="#57B894"/>
<path opacity="0.3" d="M291.123 120.035C292.9 116.852 293.224 113.647 291.847 112.877C290.47 112.106 287.913 114.062 286.136 117.245C284.359 120.428 284.035 123.633 285.412 124.403C286.789 125.174 289.346 123.218 291.123 120.035Z" stroke="#3F3D56" stroke-miterlimit="10"/>
</g>
<g opacity="0.3">
<path opacity="0.3" d="M357.576 134.813C358.628 133.636 357.28 130.711 354.566 128.279C351.852 125.847 348.798 124.83 347.746 126.007C346.694 127.183 348.042 130.109 350.756 132.54C353.471 134.972 356.524 135.989 357.576 134.813Z" fill="#57B894"/>
<path opacity="0.3" d="M357.288 133.897C358.34 132.72 356.993 129.795 354.278 127.363C351.564 124.931 348.511 123.914 347.459 125.091C346.407 126.267 347.754 129.193 350.469 131.624C353.183 134.056 356.236 135.074 357.288 133.897Z" stroke="#3F3D56" stroke-miterlimit="10"/>
</g>
<g opacity="0.3">
<path opacity="0.3" d="M298.824 101.731C299.876 100.555 298.529 97.6294 295.814 95.1977C293.1 92.766 290.047 91.7486 288.995 92.9252C287.943 94.1019 289.29 97.0271 292.005 99.4588C294.719 101.891 297.772 102.908 298.824 101.731Z" fill="#57B894"/>
<path opacity="0.3" d="M298.537 100.815C299.589 99.6387 298.241 96.7135 295.527 94.2818C292.812 91.8501 289.759 90.8326 288.707 92.0093C287.655 93.186 289.003 96.1112 291.717 98.5429C294.431 100.975 297.485 101.992 298.537 100.815Z" stroke="#3F3D56" stroke-miterlimit="10"/>
</g>
</g>
<defs>
<clipPath id="clip0">
<rect width="395" height="292" fill="white"/>
</clipPath>
</defs>
</svg>
