<svg width="236" height="174" viewBox="0 0 236 174" fill="none" xmlns="http://www.w3.org/2000/svg">
<g clip-path="url(#clip0)">
<path d="M135.394 117.99C135.394 117.99 104.053 114.235 93.0837 108.29C82.1142 102.345 0.62683 99.529 0.62683 117.99C0.62683 136.452 94.3373 144.587 94.3373 144.587L143.543 141.771L135.394 117.99Z" fill="#6EA96D"/>
<path opacity="0.1" d="M135.394 117.99C135.394 117.99 104.053 114.235 93.0837 108.29C82.1142 102.345 0.62683 99.529 0.62683 117.99C0.62683 136.452 94.3373 144.587 94.3373 144.587L143.543 141.771L135.394 117.99Z" fill="#507A4F"/>
<path d="M126.305 114.548L132.887 133.635L236 134.887V106.726C236 106.726 196.51 97.6516 165.169 117.052C165.169 117.052 128.186 112.671 126.305 114.548Z" fill="#282117"/>
<path opacity="0.1" d="M126.305 114.518L132.887 133.605L236 134.856V106.695C236 106.695 196.51 97.6208 165.169 117.021C165.169 117.021 128.186 112.64 126.305 114.518Z" fill="black"/>
<path d="M8.41603 106.569C8.41603 107.636 10.8114 108.427 11.047 109.456C11.2806 110.477 9.85737 112.028 10.3077 113.003C10.7732 113.999 11.3232 114.954 11.9516 115.857C12.5416 116.7 14.3641 116.577 15.1113 117.368C15.8429 118.086 16.6179 118.759 17.432 119.383C18.2249 120.041 19.2992 120.179 20.2008 120.785C21.0581 121.362 20.9544 123.475 21.9028 124C22.809 124.502 24.1961 124.098 25.1792 124.549C26.1227 124.982 26.6203 126.546 27.629 126.929C28.6018 127.298 29.8059 127.139 30.8344 127.459C31.8298 127.768 32.9435 127.718 33.9865 127.978C34.9994 128.231 35.773 129.747 36.8266 129.951C37.8532 130.151 39.0563 129.619 40.1177 129.77C41.1543 129.918 42.3599 128.608 43.4263 128.707C44.47 128.804 45.4535 129.41 46.5224 129.459C47.5706 129.507 48.6068 129.968 49.6759 129.968C50.7449 129.968 51.8482 130.969 52.8961 130.921C53.965 130.872 54.9326 129.355 55.9763 129.258C57.0428 129.159 58.3149 130.744 59.3516 130.597C60.413 130.446 61.2537 128.894 62.2803 128.695C63.3342 128.491 64.6954 129.6 65.7085 129.347C66.7517 129.086 67.3708 127.281 68.3664 126.972C69.3948 126.652 70.6696 127.085 71.6424 126.716C72.6513 126.333 73.8803 126.395 74.824 125.962C75.807 125.511 76.5126 124.445 77.4188 123.943C78.3672 123.418 78.8045 122.117 79.6618 121.54C80.5635 120.934 81.9373 121.012 82.7303 120.353C83.5675 119.658 85.136 119.622 85.8425 118.874C86.5898 118.083 86.8921 116.755 87.4821 115.911C88.1034 115.023 86.884 113.145 87.3177 112.206C87.7679 111.232 89.6499 110.836 89.8835 109.816C90.1243 108.75 90.2479 107.662 90.2521 106.569C90.2521 105.503 88.6426 104.688 88.407 103.659C88.1734 102.639 89.3581 101.173 88.9078 100.199C88.4739 99.2598 88.5293 97.8164 87.9078 96.9279C87.3178 96.0845 85.8455 95.7539 85.0982 94.963C84.3917 94.2152 83.1272 94.0066 82.2901 93.3115C81.4971 92.6532 81.5981 90.6678 80.6965 90.0617C79.8392 89.4854 78.6422 89.2225 77.6938 88.6978C76.7876 88.1963 75.5052 88.2808 74.5222 87.8301C73.5787 87.3974 72.1008 88.2499 71.0921 87.8673C70.1192 87.4982 69.3302 86.6917 68.3017 86.3721C67.3063 86.0627 66.8386 83.7035 65.7955 83.443C64.7827 83.1901 63.5364 83.6099 62.4828 83.4056C61.4562 83.2064 60.0749 85.0678 59.0134 84.917C57.9768 84.7697 57.2015 82.2849 56.1352 82.1857C55.0914 82.0887 53.9146 83.3757 52.8457 83.3267C51.7976 83.2787 50.7451 84.0327 49.6759 84.0327C48.607 84.0327 47.5418 82.9978 46.4939 83.0458C45.425 83.0948 44.4825 84.4625 43.4388 84.5595C42.3724 84.6587 41.0632 82.5784 40.0265 82.7256C38.9651 82.8765 38.1449 84.4846 37.1183 84.6837C36.0644 84.8881 34.7444 83.8897 33.7313 84.1426C32.6881 84.4031 32.0605 86.1123 31.0649 86.4217C30.0365 86.7414 29.4029 87.9472 28.4301 88.3162C27.4212 88.6989 25.5471 86.9083 24.6035 87.341C23.6204 87.7918 22.7714 88.5718 21.8652 89.0733C20.9168 89.5981 19.4092 89.3342 18.5519 89.9105C17.6502 90.5166 17.4285 92.1437 16.6355 92.8021C15.7983 93.4973 14.4174 93.7065 13.7109 94.4544C12.9636 95.2455 12.8598 96.6628 12.2699 97.5063C11.6486 98.3946 11.668 99.6254 11.2342 100.564C10.7841 101.539 9.58233 102.276 9.34881 103.296C9.11342 104.324 8.41603 105.503 8.41603 106.569Z" fill="#282117"/>
<path d="M121.291 126.126C121.291 126.126 85.8752 107.977 62.9961 114.861C40.1169 121.745 8.14878 109.855 4.38782 113.923C0.626867 117.99 -4.70116 161.797 40.4303 164.3C85.5618 166.803 124.112 156.79 124.112 156.79L121.291 126.126Z" fill="#507A4F"/>
<path d="M129.631 124.193C129.631 124.193 115.649 123.31 116.276 128.316C116.903 133.323 117.53 172.123 121.291 173.061C125.052 174 154.826 174 167.049 174H236V114.012C236 114.012 187.108 111.106 162.661 123.31C162.661 123.31 133.27 122.886 129.631 124.193Z" fill="#282117"/>
<path d="M64.1304 30.364C65.4663 30.4393 66.7549 30.8847 67.8515 31.6502C68.9482 32.4158 69.8095 33.4711 70.3391 34.698C71.8915 38.4446 69.8926 42.8456 66.8918 45.5777C63.8911 48.3098 60.0364 49.8715 56.5341 51.9241C51.8299 54.6812 47.6028 58.5085 45.249 63.4214C42.8953 68.3343 42.6449 74.42 45.4117 79.1135C47.9797 83.4699 52.6492 86.0772 57.1026 88.4818" stroke="#3F3D56" stroke-miterlimit="10"/>
<path d="M51.5938 7.52203C52.9298 7.59737 54.2184 8.04277 55.315 8.80829C56.4117 9.5738 57.273 10.6292 57.8025 11.856C59.355 15.6027 57.3561 20.0037 54.3553 22.7358C51.3545 25.4679 47.4998 27.0295 43.9975 29.0822C39.2934 31.8393 35.0663 35.6666 32.7125 40.5795C30.3588 45.4924 30.1084 51.5781 32.8751 56.2716C35.4432 60.6279 40.1127 63.2352 44.5661 65.6398" stroke="#3F3D56" stroke-miterlimit="10"/>
<path d="M10.3748 12.7755C11.4774 12.0186 12.7694 11.5832 14.1059 11.5183C15.4424 11.4534 16.7706 11.7614 17.9416 12.4079C21.4666 14.4216 22.5845 19.1233 21.887 23.1176C21.1894 27.112 19.099 30.7027 17.5883 34.4664C15.5592 39.5215 14.5635 45.1314 15.7148 50.4547C16.8661 55.778 20.3997 60.7431 25.4653 62.7634C30.1671 64.6385 35.4581 63.8463 40.454 63.0257" stroke="#3F3D56" stroke-miterlimit="10"/>
<path d="M46.6985 59.9959C42.5443 59.9959 39.1766 58.3628 39.1766 56.3483C39.1766 54.3338 42.5443 52.7007 46.6985 52.7007C50.8528 52.7007 54.2204 54.3338 54.2204 56.3483C54.2204 58.3628 50.8528 59.9959 46.6985 59.9959Z" fill="#507A4F"/>
<path d="M47.6388 59.3701C43.4846 59.3701 40.1169 57.737 40.1169 55.7225C40.1169 53.708 43.4846 52.0749 47.6388 52.0749C51.793 52.0749 55.1607 53.708 55.1607 55.7225C55.1607 57.737 51.793 59.3701 47.6388 59.3701Z" stroke="#3F3D56" stroke-miterlimit="10"/>
<path d="M30.4011 56.8668C26.2468 56.8668 22.8792 55.2338 22.8792 53.2193C22.8792 51.2048 26.2468 49.5717 30.4011 49.5717C34.5553 49.5717 37.923 51.2048 37.923 53.2193C37.923 55.2338 34.5553 56.8668 30.4011 56.8668Z" fill="#507A4F"/>
<path d="M31.3413 56.241C27.187 56.241 23.8194 54.608 23.8194 52.5935C23.8194 50.579 27.187 48.9459 31.3413 48.9459C35.4955 48.9459 38.8632 50.579 38.8632 52.5935C38.8632 54.608 35.4955 56.241 31.3413 56.241Z" stroke="#3F3D56" stroke-miterlimit="10"/>
<path d="M27.8937 70.6346C23.7395 70.6346 20.3718 69.0015 20.3718 66.987C20.3718 64.9725 23.7395 63.3395 27.8937 63.3395C32.048 63.3395 35.4156 64.9725 35.4156 66.987C35.4156 69.0015 32.048 70.6346 27.8937 70.6346Z" fill="#507A4F"/>
<path d="M28.834 70.0088C24.6798 70.0088 21.3121 68.3757 21.3121 66.3612C21.3121 64.3467 24.6798 62.7137 28.834 62.7137C32.9882 62.7137 36.3559 64.3467 36.3559 66.3612C36.3559 68.3757 32.9882 70.0088 28.834 70.0088Z" stroke="#3F3D56" stroke-miterlimit="10"/>
<path d="M29.4608 36.2152C25.3066 36.2152 21.9389 34.5821 21.9389 32.5676C21.9389 30.5531 25.3066 28.9201 29.4608 28.9201C33.6151 28.9201 36.9828 30.5531 36.9828 32.5676C36.9828 34.5821 33.6151 36.2152 29.4608 36.2152Z" fill="#507A4F"/>
<path d="M30.4011 35.5894C26.2468 35.5894 22.8792 33.9563 22.8792 31.9418C22.8792 29.9273 26.2468 28.2943 30.4011 28.2943C34.5553 28.2943 37.923 29.9273 37.923 31.9418C37.923 33.9563 34.5553 35.5894 30.4011 35.5894Z" stroke="#3F3D56" stroke-miterlimit="10"/>
<path d="M48.2656 34.0249C44.1114 34.0249 40.7437 32.3918 40.7437 30.3773C40.7437 28.3628 44.1114 26.7298 48.2656 26.7298C52.4198 26.7298 55.7875 28.3628 55.7875 30.3773C55.7875 32.3918 52.4198 34.0249 48.2656 34.0249Z" fill="#507A4F"/>
<path d="M49.2058 33.3991C45.0516 33.3991 41.6839 31.766 41.6839 29.7515C41.6839 27.737 45.0516 26.1039 49.2058 26.1039C53.3601 26.1039 56.7277 27.737 56.7277 29.7515C56.7277 31.766 53.3601 33.3991 49.2058 33.3991Z" stroke="#3F3D56" stroke-miterlimit="10"/>
<path d="M39.8034 26.2023C35.6492 26.2023 32.2815 24.5692 32.2815 22.5547C32.2815 20.5402 35.6492 18.9072 39.8034 18.9072C43.9577 18.9072 47.3253 20.5402 47.3253 22.5547C47.3253 24.5692 43.9577 26.2023 39.8034 26.2023Z" fill="#507A4F"/>
<path d="M40.7437 25.5765C36.5895 25.5765 33.2218 23.9434 33.2218 21.9289C33.2218 19.9144 36.5895 18.2814 40.7437 18.2814C44.8979 18.2814 48.2656 19.9144 48.2656 21.9289C48.2656 23.9434 44.8979 25.5765 40.7437 25.5765Z" stroke="#3F3D56" stroke-miterlimit="10"/>
<path d="M21.3121 27.7668C17.1579 27.7668 13.7902 26.1337 13.7902 24.1192C13.7902 22.1047 17.1579 20.4717 21.3121 20.4717C25.4663 20.4717 28.834 22.1047 28.834 24.1192C28.834 26.1337 25.4663 27.7668 21.3121 27.7668Z" fill="#507A4F"/>
<path d="M22.2523 27.141C18.0981 27.141 14.7304 25.5079 14.7304 23.4934C14.7304 21.4789 18.0981 19.8459 22.2523 19.8459C26.4066 19.8459 29.7742 21.4789 29.7742 23.4934C29.7742 25.5079 26.4066 27.141 22.2523 27.141Z" stroke="#3F3D56" stroke-miterlimit="10"/>
<path d="M7.5219 38.0926C3.36766 38.0926 -1.43051e-05 36.4596 -1.43051e-05 34.4451C-1.43051e-05 32.4306 3.36766 30.7975 7.5219 30.7975C11.6761 30.7975 15.0438 32.4306 15.0438 34.4451C15.0438 36.4596 11.6761 38.0926 7.5219 38.0926Z" fill="#507A4F"/>
<path d="M8.46217 37.4668C4.30793 37.4668 0.940262 35.8337 0.940262 33.8193C0.940262 31.8048 4.30793 30.1717 8.46217 30.1717C12.6164 30.1717 15.9841 31.8048 15.9841 33.8193C15.9841 35.8337 12.6164 37.4668 8.46217 37.4668Z" stroke="#3F3D56" stroke-miterlimit="10"/>
<path d="M56.1009 19.9442C51.9467 19.9442 48.579 18.3112 48.579 16.2967C48.579 14.2822 51.9467 12.6491 56.1009 12.6491C60.2552 12.6491 63.6228 14.2822 63.6228 16.2967C63.6228 18.3112 60.2552 19.9442 56.1009 19.9442Z" fill="#507A4F"/>
<path d="M57.0412 19.3184C52.8869 19.3184 49.5193 17.6853 49.5193 15.6708C49.5193 13.6564 52.8869 12.0233 57.0412 12.0233C61.1954 12.0233 64.5631 13.6564 64.5631 15.6708C64.5631 17.6853 61.1954 19.3184 57.0412 19.3184Z" stroke="#3F3D56" stroke-miterlimit="10"/>
<path d="M51.3997 8.0539C47.2455 8.0539 43.8778 6.42083 43.8778 4.40633C43.8778 2.39184 47.2455 0.758774 51.3997 0.758774C55.554 0.758774 58.9216 2.39184 58.9216 4.40633C58.9216 6.42083 55.554 8.0539 51.3997 8.0539Z" fill="#507A4F"/>
<path d="M52.34 7.42809C48.1857 7.42809 44.8181 5.79502 44.8181 3.78053C44.8181 1.76603 48.1857 0.132965 52.34 0.132965C56.4942 0.132965 59.8619 1.76603 59.8619 3.78053C59.8619 5.79502 56.4942 7.42809 52.34 7.42809Z" stroke="#3F3D56" stroke-miterlimit="10"/>
<path d="M7.83531 16.8152C3.68107 16.8152 0.313401 15.1821 0.313401 13.1676C0.313401 11.1531 3.68107 9.52008 7.83531 9.52008C11.9896 9.52008 15.3572 11.1531 15.3572 13.1676C15.3572 15.1821 11.9896 16.8152 7.83531 16.8152Z" fill="#507A4F"/>
<path d="M8.77557 16.1894C4.62133 16.1894 1.25365 14.5563 1.25365 12.5418C1.25365 10.5273 4.62133 8.89426 8.77557 8.89426C12.9298 8.89426 16.2975 10.5273 16.2975 12.5418C16.2975 14.5563 12.9298 16.1894 8.77557 16.1894Z" stroke="#3F3D56" stroke-miterlimit="10"/>
<path d="M77.0996 45.6023C72.9454 45.6023 69.5777 43.9692 69.5777 41.9548C69.5777 39.9403 72.9454 38.3072 77.0996 38.3072C81.2538 38.3072 84.6215 39.9403 84.6215 41.9548C84.6215 43.9692 81.2538 45.6023 77.0996 45.6023Z" fill="#507A4F"/>
<path d="M78.0399 44.9765C73.8856 44.9765 70.5179 43.3434 70.5179 41.3289C70.5179 39.3144 73.8856 37.6814 78.0399 37.6814C82.1941 37.6814 85.5618 39.3144 85.5618 41.3289C85.5618 43.3434 82.1941 44.9765 78.0399 44.9765Z" stroke="#3F3D56" stroke-miterlimit="10"/>
<path d="M51.0863 43.7249C46.9321 43.7249 43.5644 42.0918 43.5644 40.0773C43.5644 38.0628 46.9321 36.4298 51.0863 36.4298C55.2406 36.4298 58.6082 38.0628 58.6082 40.0773C58.6082 42.0918 55.2406 43.7249 51.0863 43.7249Z" fill="#507A4F"/>
<path d="M52.0266 43.0991C47.8723 43.0991 44.5047 41.466 44.5047 39.4515C44.5047 37.437 47.8723 35.804 52.0266 35.804C56.1808 35.804 59.5485 37.437 59.5485 39.4515C59.5485 41.466 56.1808 43.0991 52.0266 43.0991Z" stroke="#3F3D56" stroke-miterlimit="10"/>
<path d="M16.9243 46.541C12.7701 46.541 9.40239 44.9079 9.40239 42.8935C9.40239 40.879 12.7701 39.2459 16.9243 39.2459C21.0785 39.2459 24.4462 40.879 24.4462 42.8935C24.4462 44.9079 21.0785 46.541 16.9243 46.541Z" fill="#507A4F"/>
<path d="M17.8645 45.9152C13.7103 45.9152 10.3426 44.2821 10.3426 42.2676C10.3426 40.2532 13.7103 38.6201 17.8645 38.6201C22.0188 38.6201 25.3864 40.2532 25.3864 42.2676C25.3864 44.2821 22.0188 45.9152 17.8645 45.9152Z" stroke="#3F3D56" stroke-miterlimit="10"/>
<path d="M35.1023 47.7926C30.948 47.7926 27.5804 46.1596 27.5804 44.1451C27.5804 42.1306 30.948 40.4975 35.1023 40.4975C39.2565 40.4975 42.6242 42.1306 42.6242 44.1451C42.6242 46.1596 39.2565 47.7926 35.1023 47.7926Z" fill="#507A4F"/>
<path d="M36.0425 47.1668C31.8883 47.1668 28.5206 45.5338 28.5206 43.5193C28.5206 41.5048 31.8883 39.8717 36.0425 39.8717C40.1967 39.8717 43.5644 41.5048 43.5644 43.5193C43.5644 45.5338 40.1967 47.1668 36.0425 47.1668Z" stroke="#3F3D56" stroke-miterlimit="10"/>
<path d="M33.8486 16.5023C29.6944 16.5023 26.3267 14.8692 26.3267 12.8547C26.3267 10.8402 29.6944 9.20717 33.8486 9.20717C38.0028 9.20717 41.3705 10.8402 41.3705 12.8547C41.3705 14.8692 38.0028 16.5023 33.8486 16.5023Z" fill="#507A4F"/>
<path d="M34.7888 15.8765C30.6346 15.8765 27.2669 14.2434 27.2669 12.2289C27.2669 10.2144 30.6346 8.58136 34.7888 8.58136C38.9431 8.58136 42.3107 10.2144 42.3107 12.2289C42.3107 14.2434 38.9431 15.8765 34.7888 15.8765Z" stroke="#3F3D56" stroke-miterlimit="10"/>
<path d="M66.1301 35.9023C61.9759 35.9023 58.6082 34.2692 58.6082 32.2547C58.6082 30.2402 61.9759 28.6072 66.1301 28.6072C70.2844 28.6072 73.6521 30.2402 73.6521 32.2547C73.6521 34.2692 70.2844 35.9023 66.1301 35.9023Z" fill="#507A4F"/>
<path d="M67.0704 35.2765C62.9161 35.2765 59.5485 33.6434 59.5485 31.6289C59.5485 29.6144 62.9161 27.9814 67.0704 27.9814C71.2246 27.9814 74.5923 29.6144 74.5923 31.6289C74.5923 33.6434 71.2246 35.2765 67.0704 35.2765Z" stroke="#3F3D56" stroke-miterlimit="10"/>
<path d="M61.7424 49.983C57.5881 49.983 54.2205 48.3499 54.2205 46.3354C54.2205 44.3209 57.5881 42.6878 61.7424 42.6878C65.8966 42.6878 69.2643 44.3209 69.2643 46.3354C69.2643 48.3499 65.8966 49.983 61.7424 49.983Z" fill="#507A4F"/>
<path d="M62.6826 49.3571C58.5284 49.3571 55.1607 47.7241 55.1607 45.7096C55.1607 43.6951 58.5284 42.062 62.6826 42.062C66.8369 42.062 70.2045 43.6951 70.2045 45.7096C70.2045 47.7241 66.8369 49.3571 62.6826 49.3571Z" stroke="#3F3D56" stroke-miterlimit="10"/>
<g opacity="0.3">
<path opacity="0.3" d="M61.5674 71.241C60.5056 69.3443 60.3118 67.4346 61.1346 66.9755C61.9573 66.5164 63.485 67.6819 64.5468 69.5786C65.6085 71.4753 65.8023 73.385 64.9796 73.8441C64.1569 74.3032 62.6292 73.1377 61.5674 71.241Z" fill="#57B894"/>
<path opacity="0.3" d="M62.0633 71.5277C61.0015 69.631 60.8077 67.7213 61.6304 67.2622C62.4532 66.8031 63.9809 67.9685 65.0427 69.8652C66.1044 71.762 66.2982 73.6717 65.4755 74.1308C64.6528 74.5898 63.1251 73.4244 62.0633 71.5277Z" stroke="#3F3D56" stroke-miterlimit="10"/>
</g>
<g opacity="0.3">
<path opacity="0.3" d="M22.3598 80.3337C21.7312 79.6325 22.5364 77.8894 24.1581 76.4403C25.7798 74.9913 27.604 74.385 28.2326 75.0862C28.8611 75.7874 28.056 77.5304 26.4343 78.9795C24.8126 80.4286 22.9884 81.0348 22.3598 80.3337Z" fill="#57B894"/>
<path opacity="0.3" d="M22.5316 79.7879C21.9031 79.0867 22.7082 77.3436 24.3299 75.8945C25.9516 74.4455 27.7758 73.8392 28.4044 74.5404C29.0329 75.2416 28.2278 76.9847 26.6061 78.4337C24.9844 79.8828 23.1602 80.489 22.5316 79.7879Z" stroke="#3F3D56" stroke-miterlimit="10"/>
</g>
<g opacity="0.3">
<path opacity="0.3" d="M57.462 60.6207C56.8335 59.9196 57.6386 58.1764 59.2603 56.7274C60.882 55.2784 62.7063 54.6721 63.3348 55.3733C63.9634 56.0744 63.1582 57.8175 61.5365 59.2666C59.9148 60.7156 58.0906 61.3219 57.462 60.6207Z" fill="#57B894"/>
<path opacity="0.3" d="M57.6338 60.0749C57.0052 59.3738 57.8104 57.6307 59.4321 56.1816C61.0538 54.7326 62.8781 54.1263 63.5066 54.8275C64.1352 55.5286 63.33 57.2717 61.7083 58.7208C60.0866 60.1698 58.2624 60.7761 57.6338 60.0749Z" stroke="#3F3D56" stroke-miterlimit="10"/>
</g>
</g>
<defs>
<clipPath id="clip0">
<rect width="236" height="174" fill="white" transform="matrix(-1 0 0 1 236 0)"/>
</clipPath>
</defs>
</svg>
