<svg width="57" height="58" viewBox="0 0 57 58" fill="none" xmlns="http://www.w3.org/2000/svg">
<path d="M30.0605 15.5355C29.7444 15.5426 29.4954 15.68 29.3137 15.9475L28.1764 18.2246C28.1096 18.3889 28.0885 18.5475 28.1131 18.7001C28.2808 19.3011 28.6668 19.5375 29.2711 19.4094C29.4697 19.3391 29.624 19.2172 29.7341 19.0436L30.6095 17.3026L32.1847 17.3158L32.2266 31.9193C32.283 32.4451 32.5763 32.7335 33.1063 32.7845C33.6053 32.7427 33.8986 32.4812 33.9862 32L33.9939 16.4777L33.9862 16.3085C33.9083 15.9093 33.672 15.6619 33.2774 15.5663L30.0639 15.5355" fill="#1BB8F1"/>
<path d="M5.21075 22.5969C5.6609 22.6047 6.04341 22.7624 6.35828 23.0699C6.66745 23.3838 6.82682 23.7649 6.83641 24.2134C6.83355 24.6588 6.67468 25.0443 6.35979 25.3697C6.04523 25.678 5.6627 25.8361 5.21218 25.8442C4.76205 25.836 4.37967 25.6781 4.06504 25.3704C3.75613 25.0564 3.59702 24.6751 3.58772 24.2267C3.59417 23.7779 3.75001 23.3959 4.05523 23.0806C4.36702 22.7701 4.748 22.6089 5.19819 22.597L5.21075 22.5969ZM5.20933 20.8324C4.28487 20.8427 3.48562 21.1746 2.81157 21.8281C2.16356 22.496 1.83386 23.2955 1.82245 24.2264C1.83631 25.157 2.1691 25.9556 2.82084 26.6223C3.47891 27.2651 4.27939 27.5939 5.22229 27.6087C6.14658 27.5964 6.945 27.2628 7.61754 26.6081C8.26401 25.939 8.59207 25.1391 8.60173 24.2081C8.58609 23.2775 8.25166 22.4795 7.59843 21.8139C6.93376 21.1723 6.13743 20.8451 5.20946 20.8324" fill="#1BB8F1"/>
<path d="M5.12461 34.7211C5.57476 34.7289 5.95727 34.8866 6.27213 35.1941C6.5813 35.5079 6.74066 35.8891 6.75025 36.3375C6.7474 36.783 6.58853 37.1684 6.27365 37.4938C5.95909 37.8021 5.57654 37.9602 5.12603 37.9683C4.67589 37.9601 4.29353 37.8022 3.97892 37.4945C3.67001 37.1804 3.51091 36.7992 3.50162 36.3508C3.50807 35.902 3.66392 35.52 3.96918 35.2047C4.28097 34.8942 4.66195 34.733 5.11214 34.7211L5.12461 34.7211ZM5.12317 32.9565C4.19872 32.9668 3.39948 33.2987 2.72544 33.9522C2.07744 34.6202 1.74773 35.4196 1.73633 36.3505C1.75019 37.2811 2.08299 38.0797 2.73473 38.7464C3.39779 39.3892 4.19327 39.718 5.12115 39.7328C6.0458 39.7246 6.84589 39.3944 7.52146 38.7421C8.17101 38.0753 8.50237 37.2765 8.51555 36.3455C8.5035 35.415 8.17236 34.6158 7.52215 33.9479C6.86573 33.3039 6.06611 32.9735 5.12329 32.9565" fill="#1BB8F1"/>
<path d="M5.76341 1.99877C6.21356 2.00658 6.59607 2.16425 6.91094 2.47177C7.22008 2.78561 7.37945 3.16676 7.38903 3.61521C7.38288 4.06396 7.2273 4.44607 6.92228 4.76154C6.61075 5.0722 6.2299 5.23365 5.77975 5.2459C5.32943 5.24189 4.94542 5.08728 4.62773 4.78205C4.31581 4.47021 4.1534 4.09007 4.14052 3.64163C4.14052 3.19626 4.29636 2.80983 4.60803 2.48233C4.91983 2.17188 5.30082 2.01071 5.75101 1.99882L5.76341 1.99877ZM5.76193 0.234253C4.83749 0.244562 4.03824 0.576461 3.3642 1.22994C2.71622 1.89786 2.38653 2.69728 2.37512 3.62821C2.38898 4.55877 2.72178 5.3574 3.37351 6.02408C4.03157 6.66687 4.83204 6.99567 5.77492 7.01047C6.6992 6.99811 7.49761 6.66457 8.17014 6.00986C8.8166 5.34082 9.14466 4.54084 9.15431 3.60994C9.13866 2.67936 8.80421 1.88129 8.15096 1.21574C7.4863 0.574148 6.68999 0.246985 5.76204 0.234253" fill="#2D4356"/>
<path d="M17.3035 14.3969C17.7536 14.4047 18.1361 14.5624 18.451 14.8699C18.7601 15.1838 18.9195 15.5649 18.9291 16.0134C18.9229 16.4621 18.7674 16.8442 18.4623 17.1597C18.1508 17.4704 17.77 17.6318 17.3198 17.6441C16.8695 17.6401 16.4855 17.4855 16.1678 17.1802C15.8558 16.8684 15.6934 16.4883 15.6806 16.0398C15.6835 15.5911 15.836 15.208 16.1382 14.8905C16.4598 14.57 16.8441 14.4055 17.291 14.397L17.3035 14.3969ZM17.302 12.6324C16.3776 12.6427 15.5783 12.9746 14.9043 13.6281C14.2563 14.296 13.9266 15.0954 13.9152 16.0264C13.929 16.9569 14.2618 17.7556 14.9136 18.4222C15.5716 19.065 16.3721 19.3938 17.315 19.4086C18.2393 19.3963 19.0377 19.0628 19.7102 18.408C20.3567 17.739 20.6847 16.939 20.6944 16.0081C20.6788 15.0775 20.3443 14.2795 19.6911 13.6139C19.0264 12.9723 18.2301 12.6451 17.3021 12.6324" fill="#2D4356"/>
<path d="M13.5553 41.2565C14.0054 41.2643 14.3879 41.422 14.7028 41.7295C15.012 42.0433 15.1713 42.4245 15.1809 42.8729C15.1747 43.3217 15.0192 43.7038 14.7141 44.0192C14.4026 44.3299 14.0217 44.4913 13.5716 44.5036C13.1213 44.4996 12.7373 44.3449 12.4196 44.0397C12.1077 43.7279 11.9453 43.3477 11.9324 42.8993C11.9353 42.4506 12.0879 42.0675 12.3901 41.75C12.7117 41.4296 13.096 41.2651 13.5429 41.2565L13.5553 41.2565ZM13.5539 39.4919C12.6294 39.5022 11.8302 39.8341 11.1562 40.4876C10.5082 41.1556 10.1785 41.955 10.1671 42.8859C10.1809 43.8165 10.5137 44.6151 11.1654 45.2818C11.8285 45.9246 12.624 46.2534 13.5518 46.2682C14.4765 46.2599 15.2766 45.9297 15.9521 45.2775C16.6017 44.6107 16.933 43.8118 16.9462 42.8809C16.9342 41.9503 16.603 41.1511 15.9528 40.4833C15.2964 39.8393 14.4968 39.5089 13.554 39.4919" fill="#2D4356"/>
<path d="M5.0511 26.0112C4.56953 26.0456 4.27793 26.301 4.17631 26.7774C4.17113 26.8211 4.16862 26.8567 4.16877 26.8843L4.16878 33.4399C4.1708 33.6879 4.25498 33.8976 4.42132 34.0689C4.59733 34.2423 4.80695 34.3304 5.05021 34.3332C5.54057 34.2948 5.83294 34.0365 5.92735 33.5583C5.93103 33.5287 5.93316 33.4978 5.93376 33.4657L5.93378 26.9101C5.93303 26.66 5.84926 26.4489 5.68248 26.2768C5.50651 26.1028 5.29689 26.0143 5.05363 26.0112" fill="#1BB8F1"/>
<path d="M4.61492 6L4.6037 14.7161C4.60376 14.8426 4.62602 14.9537 4.67051 15.0494C4.73093 15.1851 4.82349 15.2985 4.94816 15.3894L10.1201 19.1717C10.2701 19.2764 10.4436 19.3306 10.6407 19.3343C11.0166 19.3179 11.2851 19.1581 11.4461 18.8546C11.5858 18.5414 11.5455 18.2491 11.3251 17.9779C11.279 17.9262 11.2283 17.881 11.1728 17.8424L6.37973 14.3277L6.37977 6.03616L4.61674 6.00002" fill="#2D4356"/>
<path d="M11.0796 6.27554C10.5591 6.32747 10.2655 6.60246 10.1989 7.10051L10.1664 28.4261C10.1845 28.6267 10.2593 28.8007 10.3908 28.948L12.8248 31.9219L12.8449 40.4113C12.9476 40.8885 13.2392 41.1439 13.7198 41.1773C14.24 41.1269 14.5337 40.8508 14.6009 40.3488L14.5858 31.4324C14.5561 31.2581 14.4834 31.1071 14.3676 30.9792L11.9358 28L11.9358 8.64604L16.5026 11.1951L16.4897 13.3498L16.5117 13.5284C16.5894 13.8429 16.7898 14.0583 17.1131 14.1747C17.6359 14.28 18.0006 14.0941 18.2073 13.6171C18.2381 13.5216 18.2538 13.4343 18.2544 13.3553L18.2778 10.6329C18.2528 10.3264 18.109 10.0903 17.8465 9.9246L11.5202 6.39322C11.3777 6.31482 11.2345 6.27561 11.0904 6.27561" fill="#2D4356"/>
<path d="M23.1991 2.73093C22.7027 2.76339 22.4094 3.03544 22.3192 3.54705V18.1126L17.1141 22.7286C16.9711 22.8685 16.8843 23.0394 16.8538 23.2412L16.8538 36.5C16.8869 37.0259 16.9464 37.4332 17.5 37.5C18 37.5 18.5 37 18.5 37L26.4385 29.3382C26.5823 29.1991 26.6704 29.0327 26.7029 28.8391L26.796 26.9546C26.8035 26.8377 26.7717 26.7012 26.7007 26.5451C26.37 26.0436 25.9379 25.9364 25.4044 26.2237C25.2339 26.3394 25.117 26.5128 25.0538 26.7439L24.9521 28.3151L18.5 34.5L18.6037 23.7495L23.8293 19.1137C23.9525 18.9946 24.0341 18.8382 24.0742 18.6446L24.0815 3.58361C24.0256 3.07346 23.7355 2.78925 23.211 2.731" fill="#1BB8F1"/>
<path d="M25.8116 22.7598C26.2618 22.7676 26.6443 22.9253 26.9592 23.2328C27.2683 23.5466 27.4277 23.9278 27.4373 24.3762C27.4311 24.825 27.2756 25.2071 26.9706 25.5226C26.659 25.8332 26.2782 25.9947 25.828 26.007C25.3777 26.003 24.9937 25.8484 24.676 25.5431C24.3641 25.2313 24.2017 24.8512 24.1888 24.4027C24.1917 23.954 24.3442 23.5709 24.6464 23.2534C24.968 22.9329 25.3523 22.7684 25.7992 22.7598L25.8116 22.7598ZM25.8102 20.9953C24.8857 21.0056 24.0865 21.3375 23.4124 21.991C22.7644 22.6589 22.4347 23.4583 22.4233 24.3893C22.4372 25.3198 22.77 26.1185 23.4217 26.7851C24.0798 27.4279 24.8803 27.7567 25.8232 27.7715C26.7475 27.7592 27.5459 27.4256 28.2184 26.7709C28.8649 26.1019 29.1929 25.3019 29.2026 24.371C29.1869 23.4404 28.8525 22.6423 28.1992 21.9768C27.5346 21.3352 26.7383 21.008 25.8103 20.9953" fill="#1BB8F1"/>
<path d="M29.5529 0.827941L27.004 0.868062C26.6209 0.9665 26.3923 1.22108 26.3182 1.63178L26.2776 10.3455C26.3225 10.5637 26.4015 10.725 26.5147 10.8295L28.6368 12.8607C28.7678 12.9753 28.9455 13.0408 29.1697 13.0571L35.0289 13.0717C35.1508 13.0456 35.2679 12.9897 35.3803 12.904L37.192 11.3231C37.3559 11.1962 37.4489 10.9736 37.4711 10.6551C37.3865 10.0839 37.0665 9.79899 36.511 9.8003C36.3483 9.81141 36.1907 9.87449 36.0383 9.98955L34.5 11.3231L29.4944 11.2728L28.0481 9.8003V2.62721C31.8844 2.51655 34.9049 2.72741 37.1097 3.25979C40.4336 3.99045 43.4958 5.76274 46.2964 8.57665C49.1006 11.4259 50.9699 14.6367 51.9043 18.2092C52.5334 20.5929 52.78 22.9545 52.6441 25.294C52.5819 26.2151 52.4497 27.0213 52.2476 27.7126C52.0431 28.4497 51.6605 29.3025 51.0997 30.271C51.0194 30.4923 50.9965 30.6633 51.0312 30.7841C53.5841 36.4293 54.7542 39.736 54.5416 40.7041C54.5247 41.0633 54.3357 41.2812 53.9746 41.3579C53.6076 41.4848 52.597 41.4369 50.9427 41.2139C50.6239 41.2392 50.381 41.397 50.214 41.6871C50.1188 41.861 50.0931 42.0627 50.1368 42.2921C50.73 43.989 50.9739 44.992 50.8685 45.3008C51 45.6138 50.2964 45.9792 48.7577 46.397C48.6009 46.4776 48.474 46.6419 48.3768 46.8899C48.3152 47.1102 48.3282 47.3168 48.4159 47.5099C49.4517 48.8139 49.9141 49.5487 49.8032 49.7145C49.7837 49.8783 49.3198 50.2495 48.4115 50.8281C48.2866 50.9571 48.2098 51.0725 48.1812 51.1742L48.1279 51.4842C48.3526 52.7984 48.437 53.6303 48.381 53.9797C48.3554 54.4253 48.2006 54.7805 47.9166 55.0452C46.8227 55.8211 44.6568 55.9313 41.4188 55.3756C38.6684 54.8594 36.0605 53.8543 33.5949 52.3603C31.2201 50.8838 29.5619 49.3311 28.6204 47.7021C28.1954 46.9787 27.8731 46.1394 27.6535 45.1841C27.4495 44.3263 27.3116 43.0653 27.2399 41.401C27.239 41.2753 27.1843 41.1273 27.0759 40.957C26.3467 40.384 25.8178 40.5092 25.4889 41.3326C25.3889 46.0472 26.9304 49.6161 30.1134 52.0392C34.462 55.4885 39.3621 57.3049 44.8136 57.4885C47.2642 57.489 48.8504 56.9378 49.5721 55.835C50.1847 54.9521 50.3219 53.6428 49.9835 51.9072C50.9284 51.2915 51.45 50.6493 51.5483 49.9806C51.6752 49.3758 51.4 48.5873 50.7227 47.6153C51.7937 47.1925 52.411 46.5736 52.5746 45.7586C52.7203 45.1766 52.6229 44.3034 52.2824 43.139C54.5861 43.3834 55.9051 42.7611 56.2393 41.2722C56.7061 40.0592 55.5934 36.5393 52.9012 30.7123C54.6869 27.7363 54.9212 23.41 53.6043 17.7336C52.1661 12.4598 49.0712 8.08014 44.3197 4.59466C40.793 1.93701 35.8829 0.681446 29.5896 0.827948" fill="#2D4356"/>
<path d="M53.1377 21.6174L49.1872 21.6511C48.9558 21.6758 48.7698 21.7601 48.6292 21.904L43.7388 31.3808L27.7392 31.4509C27.5009 31.4538 27.3043 31.5224 27.1495 31.6566L20.2285 38.3257C20.1536 38.3864 20.0814 38.4901 20.012 38.6369C19.9728 38.7317 19.9508 38.8311 19.946 38.9352L19.946 46.5C20.031 46.9799 20.3131 47.2455 20.7925 47.2968C21.2818 47.2788 21.5834 47.0293 21.6972 46.5484L21.7184 39.3407L28.0585 33.2285L44.2517 33.1456C44.3902 33.1479 44.518 33.1228 44.6353 33.0704C44.8294 32.977 44.9688 32.8489 45.0536 32.6862L49.7821 23.4295L53.1785 23.3809C53.317 23.3728 53.4415 23.3387 53.552 23.2787C53.9161 23.0574 54.066 22.7374 54.0015 22.3188C53.8757 21.8881 53.6009 21.6546 53.1771 21.6183" fill="#2D4356"/>
<path d="M47.2054 15.4904L42 15.5C41.7203 15.5338 41.501 15.6716 41.3422 15.9133C41.0781 16.5549 41.2615 16.996 41.8925 17.2367H46L42.2212 25.2317L35.8867 25.2717C35.5866 25.295 35.3518 25.4389 35.1821 25.7034C35.1054 25.8415 35.0651 25.974 35.061 26.1008L35.061 32L36.8245 32.0609L36.7971 27.0292L42.8724 26.9899C43.1775 26.9536 43.4055 26.8137 43.5566 26.5702L48.0465 16.6399C48.1617 15.9916 47.8888 15.6085 47.2279 15.4906" fill="#2D4356"/>
<path d="M38.2525 7.09561C38.7026 7.10342 39.0851 7.26109 39.4 7.56862C39.7091 7.88246 39.8685 8.26361 39.8781 8.71207C39.872 9.16081 39.7164 9.54293 39.4114 9.85841C39.0999 10.1691 38.719 10.3305 38.2689 10.3428C37.8186 10.3388 37.4346 10.1842 37.1169 9.87901C36.8049 9.56717 36.6425 9.18703 36.6296 8.73859C36.6325 8.28988 36.785 7.90678 37.0872 7.58927C37.4088 7.26879 37.793 7.10425 38.2399 7.09566L38.2525 7.09561ZM38.251 5.33109C37.3265 5.34139 36.5273 5.67329 35.8532 6.32678C35.2052 6.99471 34.8755 7.79414 34.8641 8.72509C34.878 9.65567 35.2108 10.4543 35.8625 11.121C36.5206 11.7638 37.3211 12.0926 38.264 12.1074C39.1882 12.095 39.9866 11.7615 40.6592 11.1068C41.3056 10.4377 41.6337 9.63774 41.6434 8.70683C41.6277 7.77624 41.2932 6.97816 40.64 6.31259C39.9754 5.67098 39.179 5.34381 38.2511 5.33109" fill="#2D4356"/>
<path d="M20.8066 47.8176C21.2567 47.8254 21.6392 47.9831 21.9541 48.2906C22.2632 48.6045 22.4226 48.9856 22.4322 49.4341C22.426 49.8828 22.2705 50.2649 21.9655 50.5804C21.641 50.8986 21.2552 51.0601 20.808 51.0649C20.3578 51.0567 19.9755 50.8988 19.6608 50.591C19.3519 50.277 19.1928 49.8958 19.1836 49.4473C19.19 48.9986 19.3459 48.6165 19.6511 48.3012C19.9629 47.9908 20.3439 47.8296 20.7941 47.8177L20.8066 47.8176ZM20.8051 46.0531C19.8807 46.0634 19.0814 46.3953 18.4074 47.0488C17.7594 47.7167 17.4297 48.5161 17.4183 49.4471C17.4321 50.3777 17.7649 51.1763 18.4167 51.843C19.0747 52.4858 19.8752 52.8146 20.8181 52.8294C21.7424 52.817 22.5408 52.4835 23.2133 51.8288C23.8598 51.1597 24.1878 50.3598 24.1975 49.4288C24.1818 48.4983 23.8474 47.7002 23.1942 47.0346C22.5295 46.393 21.7332 46.0658 20.8053 46.0531" fill="#2D4356"/>
<path d="M39.1108 15.2652C39.561 15.273 39.9435 15.4306 40.2584 15.7382C40.5675 16.052 40.7269 16.4332 40.7365 16.8816C40.7303 17.3304 40.5748 17.7125 40.2698 18.028C39.9583 18.3386 39.5774 18.5001 39.1272 18.5124C38.6769 18.5084 38.2929 18.3538 37.9752 18.0486C37.6632 17.7368 37.5008 17.3566 37.4879 16.9082C37.4908 16.4595 37.6434 16.0764 37.9455 15.7588C38.2671 15.4384 38.6513 15.2738 39.0983 15.2652L39.1108 15.2652ZM39.1094 13.5006C38.1849 13.5109 37.3857 13.8428 36.7116 14.4963C36.0636 15.1643 35.7339 15.9637 35.7225 16.8946C35.7364 17.8252 36.0692 18.6239 36.7209 19.2905C37.379 19.9333 38.1795 20.2621 39.1224 20.2769C40.0467 20.2646 40.8451 19.9311 41.5176 19.2763C42.1641 18.6073 42.4921 17.8073 42.5018 16.8764C42.4861 15.9458 42.1517 15.1477 41.4985 14.4822C40.8338 13.8406 40.0375 13.5134 39.1095 13.5006" fill="#2D4356"/>
</svg>
