<svg width="720" height="304" viewBox="0 0 720 304" fill="none" xmlns="http://www.w3.org/2000/svg">
<path d="M219.675 2.82819C230.131 -1.60342 243.237 -1.11611 251.792 6.35652C239.63 8.49588 228.617 14.8713 220.7 24.3549C217.661 28.0234 214.661 32.4205 209.987 33.3303C207.078 33.8965 204.039 32.9221 201.556 31.304C199.073 29.6858 197.052 27.4648 195.06 25.2692L194.367 25.0116C201.052 15.8265 209.22 7.25981 219.675 2.82819Z" fill="#F0F0F0"/>
<path d="M251.661 6.55565C242.458 4.64727 232.888 5.68946 224.31 9.53419C222.449 10.3291 220.725 11.4126 219.201 12.7448C217.758 14.0906 216.702 15.7985 216.142 17.6911C215.584 19.4452 215.217 21.3041 214.243 22.892C213.732 23.6974 213.057 24.3857 212.262 24.9117C211.467 25.4377 210.57 25.7896 209.629 25.9442C207.296 26.3906 204.941 25.9712 202.653 25.4811C200.112 24.9368 197.482 24.3312 194.899 24.9695C194.587 25.0468 194.485 24.5564 194.797 24.4792C199.29 23.3687 203.636 25.8418 208.132 25.6187C210.23 25.5145 212.309 24.777 213.565 23.0091C214.664 21.4632 215.045 19.5466 215.594 17.7656C216.113 15.9114 217.079 14.2126 218.405 12.8177C219.857 11.4121 221.536 10.2639 223.373 9.42231C227.476 7.46161 231.863 6.15888 236.371 5.56184C241.512 4.85188 246.737 5.02737 251.82 6.08071C252.134 6.14604 251.973 6.62054 251.661 6.55564L251.661 6.55565Z" fill="white"/>
<path d="M226.999 8.13349C226.55 6.60568 226.658 4.96782 227.304 3.51241C227.951 2.05699 229.092 0.878799 230.526 0.188238C230.817 0.0495074 231.046 0.494966 230.755 0.633877C229.419 1.27446 228.355 2.37205 227.756 3.72856C227.157 5.08507 227.063 6.61114 227.489 8.03133C227.582 8.34006 227.091 8.44046 226.999 8.13349Z" fill="white"/>
<path d="M216.307 16.7644C219.149 18.3485 222.483 18.8025 225.645 18.0357C225.958 17.9595 226.06 18.4499 225.747 18.526C222.456 19.3178 218.987 18.8383 216.033 17.1834C215.752 17.0254 216.028 16.6073 216.307 16.7644Z" fill="white"/>
<path d="M241.334 5.49165C241.385 6.11904 241.591 6.724 241.933 7.2522C242.275 7.7804 242.743 8.21531 243.294 8.51785C243.578 8.67214 243.302 9.09008 243.02 8.93679C242.412 8.59969 241.896 8.11875 241.517 7.536C241.138 6.95326 240.907 6.28644 240.845 5.59381C240.833 5.52902 240.847 5.46233 240.883 5.4073C240.919 5.35228 240.975 5.31304 241.039 5.29757C241.103 5.28437 241.171 5.29735 241.226 5.33369C241.282 5.37003 241.321 5.4268 241.334 5.49165Z" fill="white"/>
<path d="M250.768 44.818C250.589 44.7267 250.409 44.6354 250.226 44.546C247.804 43.331 245.288 42.3149 242.703 41.5076C242.504 41.442 242.301 41.3785 242.101 41.3188C235.851 39.4404 229.306 38.7396 222.8 39.2522C220.212 39.4585 217.642 39.8616 215.115 40.4581C211.624 41.282 207.905 42.4533 204.448 42.0858C204.087 42.0515 203.729 41.9949 203.374 41.9163L194.107 25.8783C194.104 25.8312 194.097 25.7861 194.094 25.7389L193.695 25.1155C193.823 25.0757 193.957 25.0371 194.085 24.9972C194.16 24.9737 194.236 24.9539 194.31 24.9305C194.36 24.916 194.411 24.9016 194.455 24.8857C194.472 24.8808 194.489 24.8761 194.502 24.8733C194.546 24.8573 194.589 24.8473 194.63 24.8334C195.377 24.6156 196.128 24.4027 196.881 24.1946C196.884 24.1925 196.884 24.1925 196.89 24.194C202.614 22.5537 208.512 21.5987 214.46 21.3491C214.638 21.344 214.819 21.3367 215.001 21.339C217.662 21.2773 220.324 21.4334 222.96 21.8057C224.402 22.0143 225.834 22.2957 227.248 22.6491C230.9 23.5692 234.385 25.0585 237.575 27.0624C243.934 31.0582 248.945 37.0448 250.644 44.2651C250.687 44.4498 250.729 44.6312 250.768 44.818Z" fill="#F0F0F0"/>
<path d="M250.544 44.8997C244.344 37.8307 236.076 32.8966 226.915 30.7981C224.951 30.3113 222.922 30.1374 220.904 30.2828C218.942 30.488 217.071 31.2152 215.485 32.3888C213.985 33.4533 212.573 34.7161 210.84 35.3971C209.948 35.7325 208.995 35.8753 208.044 35.8162C207.092 35.7571 206.164 35.4975 205.32 35.0543C203.189 34.0047 201.561 32.2511 200.029 30.481C198.328 28.5155 196.592 26.4471 194.146 25.4006C193.85 25.2738 194.064 24.821 194.36 24.9476C198.615 26.7682 200.597 31.3615 204.321 33.8923C206.059 35.0732 208.162 35.7372 210.229 35.0826C212.036 34.5103 213.493 33.2093 215.003 32.1183C216.534 30.9508 218.326 30.1759 220.224 29.8616C222.229 29.6138 224.261 29.7091 226.233 30.1436C230.69 31.0509 234.976 32.6538 238.934 34.8935C243.466 37.4246 247.533 40.713 250.957 44.6164C251.169 44.858 250.755 45.1398 250.544 44.8997H250.544Z" fill="white"/>
<path d="M229.904 31.3C230.465 29.8095 231.537 28.5669 232.928 27.7941C234.319 27.0213 235.94 26.7687 237.5 27.0813C237.816 27.1456 237.731 27.6394 237.415 27.575C235.962 27.2811 234.453 27.5166 233.159 28.2389C231.864 28.9612 230.871 30.1226 230.357 31.5137C230.245 31.8158 229.793 31.6005 229.904 31.3001V31.3Z" fill="white"/>
<path d="M216.175 31.7488C217.491 34.726 219.88 37.0974 222.866 38.3901C223.162 38.5179 222.948 38.9707 222.652 38.843C219.548 37.492 217.067 35.0192 215.704 31.918C215.574 31.6224 216.046 31.4547 216.175 31.7488V31.7488Z" fill="white"/>
<path d="M242.939 37.8282C242.602 38.3597 242.403 38.9666 242.358 39.5945C242.313 40.2223 242.425 40.8514 242.684 41.4253C242.817 41.7192 242.345 41.8865 242.213 41.5946C241.93 40.9592 241.808 40.2642 241.855 39.5704C241.903 38.8767 242.12 38.2051 242.487 37.6145C242.517 37.556 242.568 37.511 242.63 37.4888C242.692 37.4666 242.76 37.4687 242.82 37.4949C242.88 37.5235 242.926 37.5745 242.948 37.6369C242.971 37.6993 242.967 37.7681 242.939 37.8282V37.8282Z" fill="white"/>
<path d="M614.889 295.672H606.684L602.781 263.999L614.89 263.999L614.889 295.672Z" fill="#A0616A"/>
<path d="M616.981 303.632L590.525 303.631V303.296C590.525 300.563 591.61 297.942 593.541 296.009C595.472 294.077 598.092 292.991 600.823 292.991H600.823L616.982 292.991L616.981 303.632Z" fill="#2F2E41"/>
<path d="M678.776 292.118L670.663 293.345L662.073 262.612L672.708 260.8L678.776 292.118Z" fill="#A0616A"/>
<path d="M682.034 299.675L655.875 303.632L655.825 303.301C655.417 300.598 656.098 297.844 657.719 295.645C659.339 293.445 661.767 291.979 664.467 291.571L664.468 291.57L680.445 289.154L682.034 299.675Z" fill="#2F2E41"/>
<path d="M444.739 303.632H199.57V58.2667H444.739V303.632Z" fill="white"/>
<path d="M444.739 303.632H199.57V58.2667H444.739V303.632ZM203.192 300.007H441.117V61.8919H203.192V300.007Z" fill="#F0F0F0"/>
<path d="M407.355 163.746H250.12V169.301H407.355V163.746Z" fill="#CE8B65"/>
<path d="M407.355 178.189H250.12V183.744H407.355V178.189Z" fill="#CE8B65"/>
<path d="M407.355 192.632H250.12V198.187H407.355V192.632Z" fill="#CE8B65"/>
<path d="M240.576 170.963C242.577 170.963 244.199 169.34 244.199 167.337C244.199 165.335 242.577 163.712 240.576 163.712C238.576 163.712 236.954 165.335 236.954 167.337C236.954 169.34 238.576 170.963 240.576 170.963Z" fill="#CE8B65"/>
<path d="M407.355 101.513H250.12V107.068H407.355V101.513Z" fill="#F0F0F0"/>
<path d="M407.355 115.955H250.12V121.51H407.355V115.955Z" fill="#F0F0F0"/>
<path d="M407.355 130.398H250.12V135.953H407.355V130.398Z" fill="#F0F0F0"/>
<path d="M240.576 108.125C242.577 108.125 244.199 106.502 244.199 104.5C244.199 102.498 242.577 100.874 240.576 100.874C238.576 100.874 236.954 102.498 236.954 104.5C236.954 106.502 238.576 108.125 240.576 108.125Z" fill="#F0F0F0"/>
<path d="M407.355 226.584H250.12V232.139H407.355V226.584Z" fill="#F0F0F0"/>
<path d="M407.355 241.027H250.12V246.582H407.355V241.027Z" fill="#F0F0F0"/>
<path d="M407.355 255.469H250.12V261.024H407.355V255.469Z" fill="#F0F0F0"/>
<path d="M240.576 233.196C242.577 233.196 244.199 231.573 244.199 229.571C244.199 227.569 242.577 225.946 240.576 225.946C238.576 225.946 236.954 227.569 236.954 229.571C236.954 231.573 238.576 233.196 240.576 233.196Z" fill="#E5E5E5"/>
<path d="M576.345 206.705H433.693C431.556 206.7 429.824 203.154 429.821 198.777V92.5661C429.821 88.1893 431.556 84.6446 433.693 84.6373H576.345C578.482 84.6428 580.214 88.1884 580.217 92.5661V198.776C580.214 203.152 578.479 206.7 576.345 206.705Z" fill="white"/>
<path d="M576.345 206.705H433.693C431.556 206.7 429.824 203.154 429.821 198.777V92.5661C429.821 88.1893 431.556 84.6446 433.693 84.6373H576.345C578.482 84.6428 580.214 88.1884 580.217 92.5661V198.776C580.214 203.152 578.479 206.7 576.345 206.705ZM433.693 87.8086C432.41 87.8086 431.371 89.9401 431.369 92.566V198.776C431.369 201.402 432.41 203.53 433.693 203.533H576.345C577.628 203.533 578.667 201.402 578.669 198.776V92.5661C578.669 89.9402 577.628 87.8114 576.345 87.8087L433.693 87.8086Z" fill="#E6E6E6"/>
<path d="M524.333 171.239H485.935V174.127H524.333V171.239Z" fill="#CE8B65"/>
<path d="M529.121 178.744H480.797V181.632H529.121V178.744Z" fill="#CE8B65"/>
<path d="M530.091 134.802C530.089 139.144 528.963 143.41 526.821 147.185C524.68 150.961 521.597 154.116 517.873 156.342C514.149 158.568 509.912 159.79 505.575 159.888C501.239 159.986 496.951 158.957 493.131 156.901L493.126 156.896C489.223 154.792 485.948 151.69 483.634 147.907C481.319 144.123 480.048 139.794 479.95 135.359C479.852 130.923 480.931 126.542 483.076 122.66C485.221 118.778 488.356 115.534 492.162 113.26C495.967 110.985 500.307 109.761 504.74 109.712C509.172 109.663 513.538 110.79 517.393 112.98C521.248 115.169 524.454 118.343 526.685 122.176C528.915 126.01 530.091 130.366 530.091 134.802Z" fill="#CACACA"/>
<path d="M505.147 133.584C508.911 133.584 511.962 130.53 511.962 126.763C511.962 122.996 508.911 119.942 505.147 119.942C501.383 119.942 498.331 122.996 498.331 126.763C498.331 130.53 501.383 133.584 505.147 133.584Z" fill="white"/>
<path d="M516.785 147.679C509.165 150.355 500.857 150.323 493.258 147.587L493.253 147.584L498.331 137.553H511.962L516.785 147.679Z" fill="white"/>
<path d="M404.517 244.683H511.554V197.713H509.907V243.035H404.517V244.683Z" fill="#3F3D56"/>
<path d="M510.731 214.388C515.733 214.388 519.787 210.33 519.787 205.324C519.787 200.318 515.733 196.26 510.731 196.26C505.729 196.26 501.674 200.318 501.674 205.324C501.674 210.33 505.729 214.388 510.731 214.388Z" fill="#3F3D56"/>
<path d="M206.596 141.658H63.9438C61.8067 141.653 60.0745 138.107 60.0718 133.729V27.519C60.0718 23.1422 61.8067 19.5976 63.9438 19.5903H206.596C208.733 19.5957 210.465 23.1413 210.468 27.519V133.729C210.465 138.105 208.73 141.653 206.596 141.658Z" fill="white"/>
<path d="M206.596 141.658H63.9438C61.8067 141.653 60.0745 138.107 60.0718 133.729V27.519C60.0718 23.1422 61.8067 19.5976 63.9438 19.5903H206.596C208.733 19.5957 210.465 23.1413 210.468 27.519V133.729C210.465 138.105 208.73 141.653 206.596 141.658ZM63.9438 22.7616C62.661 22.7616 61.622 24.8931 61.6202 27.519V133.729C61.6202 136.354 62.661 138.483 63.9438 138.486H206.596C207.878 138.486 208.917 136.355 208.919 133.729V27.519C208.919 24.8931 207.879 22.7644 206.596 22.7616L63.9438 22.7616Z" fill="#E6E6E6"/>
<path d="M166.939 52.7711C160.591 46.0261 151.852 42.0427 142.601 41.677V77.1281L166.939 52.7711Z" fill="#3F3D56"/>
<path d="M166.939 57.1852L142.601 81.5422H176.613C176.625 72.4826 173.162 63.7639 166.939 57.1852Z" fill="#E4E4E4"/>
<path d="M176.65 84.0897C176.651 86.2993 176.447 88.5042 176.04 90.6758C176.008 90.8478 175.975 91.018 175.939 91.1883C175.172 94.9765 173.785 98.6122 171.836 101.949C171.733 102.128 171.626 102.307 171.519 102.483V102.485C169.598 105.648 167.196 108.491 164.4 110.913C164.261 111.034 164.123 111.154 163.982 111.271C157.973 116.332 150.448 119.241 142.6 119.54V84.0897H176.65Z" fill="#F0F0F0"/>
<path d="M139.16 119.572C139.631 119.572 140.099 119.559 140.565 119.541V84.0888L114.804 109.871C121.379 116.111 130.099 119.584 139.16 119.572Z" fill="#CACACA"/>
<path d="M139.208 46.0595C134.552 46.0595 129.942 46.9773 125.641 48.7605C121.339 50.5437 117.431 53.1573 114.138 56.4522C110.846 59.747 108.235 63.6586 106.453 67.9636C104.671 72.2685 103.754 76.8826 103.754 81.5422H140.65V46.0912C140.172 46.072 139.692 46.0595 139.208 46.0595Z" fill="#CE8B65"/>
<path d="M130.75 84.0897L123.296 91.5498L123.052 91.7937L123.047 91.799L116.547 98.3026L116.299 98.5501L109.277 105.578L109.029 105.826V105.828L104.988 109.871C101.478 106.559 98.683 102.563 96.7744 98.129C94.8658 93.6952 93.8841 88.9174 93.8897 84.0897H130.75Z" fill="#CE8B65"/>
<path d="M250.529 181.082H143.493V134.112H145.14V179.433H250.529V181.082Z" fill="#3F3D56"/>
<path d="M144.316 150.787C149.318 150.787 153.373 146.728 153.373 141.722C153.373 136.716 149.318 132.658 144.316 132.658C139.314 132.658 135.259 136.716 135.259 141.722C135.259 146.728 139.314 150.787 144.316 150.787Z" fill="#3F3D56"/>
<path d="M653.478 138.707L644.367 141.096L644.973 155.878L645.049 182.791C644.151 183.413 643.463 184.292 643.076 185.313C642.688 186.334 642.62 187.449 642.879 188.51C643.139 189.571 643.714 190.528 644.529 191.254C645.344 191.981 646.36 192.443 647.442 192.579C648.525 192.715 649.624 192.519 650.593 192.017C651.562 191.514 652.356 190.73 652.869 189.766C653.383 188.802 653.592 187.705 653.469 186.62C653.346 185.535 652.897 184.512 652.181 183.688L654.981 156.676L653.478 138.707Z" fill="#A0616A"/>
<path d="M656.027 147.595L642.711 143.108L642.679 142.907C642.66 142.781 640.706 130.158 640.73 121.499C640.704 120.534 640.888 119.575 641.269 118.689C641.651 117.803 642.221 117.011 642.94 116.368C643.94 115.455 645.185 114.853 646.522 114.638C647.859 114.423 649.23 114.603 650.466 115.157C651.787 115.702 652.922 116.616 653.738 117.789C654.553 118.963 655.013 120.347 655.063 121.776L656.027 147.595Z" fill="#E4E4E4"/>
<path d="M631.254 146.357L610.886 141.081L601.472 172.814L601.137 291.033L616.712 290.935L623.223 195.252L664.717 283.665L681.448 281.656L644.973 186.88C644.973 186.88 646.981 170.135 640.623 161.762L641.962 153.055L631.254 146.357Z" fill="#E4E4E2"/>
<path d="M642.565 155.399L641.023 155.375L609.724 142.854L624.698 109.477L631.807 110.77L630.513 105.589L646.221 101.746L648.954 112.688L652.987 116.356C654.003 117.281 654.729 118.481 655.076 119.811C655.423 121.141 655.377 122.542 654.943 123.846L645.653 151.74C645.729 152.189 645.706 152.65 645.586 153.09C645.466 153.53 645.252 153.939 644.958 154.287C644.664 154.636 644.297 154.916 643.884 155.108C643.471 155.3 643.021 155.399 642.565 155.399L642.565 155.399Z" fill="#E4E4E4"/>
<path d="M619.026 130.406L610.792 125.832L601.023 136.936L582.493 156.441C581.416 156.269 580.311 156.429 579.326 156.899C578.341 157.37 577.522 158.128 576.977 159.074C576.432 160.02 576.187 161.11 576.274 162.199C576.361 163.287 576.777 164.324 577.465 165.171C578.154 166.019 579.083 166.637 580.13 166.944C581.178 167.251 582.294 167.233 583.33 166.891C584.367 166.55 585.276 165.902 585.936 165.032C586.597 164.163 586.978 163.113 587.029 162.022L607.705 144.434L619.026 130.406Z" fill="#A0616A"/>
<path d="M614.731 138.594L608.205 126.141L608.321 125.974C608.394 125.869 615.698 115.395 621.695 109.152C622.341 108.437 623.136 107.871 624.024 107.494C624.912 107.118 625.871 106.94 626.834 106.972C628.188 107.004 629.503 107.431 630.618 108.2C631.733 108.969 632.599 110.047 633.111 111.301C633.689 112.608 633.879 114.054 633.658 115.467C633.436 116.879 632.814 118.197 631.864 119.264L614.731 138.594Z" fill="#E4E4E4"/>
<path d="M634.599 99.7106C641.492 99.7106 647.08 94.1182 647.08 87.2196C647.08 80.3211 641.492 74.7287 634.599 74.7287C627.706 74.7287 622.118 80.3211 622.118 87.2196C622.118 94.1182 627.706 99.7106 634.599 99.7106Z" fill="#A0616A"/>
<path d="M619.58 79.8954C621.679 76.135 622.482 74.5642 625.188 72.2775C627.581 70.2551 630.525 69.6612 632.899 71.5774C635.707 70.363 638.833 70.0876 641.81 70.7922C644.788 71.4968 647.459 73.1439 649.426 75.4887C651.394 77.8335 652.553 80.751 652.732 83.8078C652.911 86.8646 652.1 89.8976 650.42 92.4563C648.739 95.0151 646.278 96.963 643.404 98.0108C640.529 99.0586 637.393 99.1503 634.462 98.2724C631.53 97.3945 628.961 95.5937 627.133 93.1376C625.306 90.6815 624.32 87.7011 624.32 84.639C624.322 84.1013 624.354 83.5641 624.417 83.0301C622.353 82.74 621.644 80.1855 619.58 79.8954Z" fill="#2F2E41"/>
<path d="M67.5889 189.093C68.1764 188.74 68.6793 188.262 69.0623 187.693C69.4452 187.124 69.6989 186.478 69.8053 185.8C69.9118 185.122 69.8685 184.429 69.6784 183.77C69.4884 183.111 69.1563 182.502 68.7055 181.985L74.7985 120.793L64.6244 121.469L61.8059 181.724C60.9886 182.54 60.4986 183.627 60.4288 184.78C60.359 185.933 60.7141 187.071 61.427 187.979C62.1398 188.888 63.1608 189.503 64.2965 189.708C65.4322 189.913 66.6036 189.694 67.5889 189.093V189.093Z" fill="#FFB8B8"/>
<path d="M60.5027 118.527L63.1701 138.816L62.7998 151.251L73.9897 152.276L76.2324 141.934L77.4679 114.554C77.5611 112.489 76.8687 110.465 75.5302 108.89C74.1917 107.316 72.3066 106.308 70.2548 106.069C68.1261 105.821 65.9855 106.421 64.2949 107.739C62.6042 109.057 61.4992 110.987 61.2182 113.114L60.5027 118.527Z" fill="#E4E4E2"/>
<path d="M103.356 297.047H110.143L113.372 270.844H103.354L103.356 297.047Z" fill="#FFB7B7"/>
<path d="M101.624 294.829L114.992 294.829H114.992C117.252 294.829 119.418 295.727 121.016 297.326C122.614 298.925 123.511 301.093 123.511 303.354V303.631L101.625 303.632L101.624 294.829Z" fill="#2F2E41"/>
<path d="M47.3077 297.047H54.0954L57.3242 270.844H47.3063L47.3077 297.047Z" fill="#FFB7B7"/>
<path d="M45.5758 294.829L58.9435 294.829H58.944C61.2033 294.829 63.37 295.727 64.9676 297.326C66.5652 298.925 67.4628 301.093 67.4629 303.354V303.631L45.5762 303.632L45.5758 294.829Z" fill="#2F2E41"/>
<path d="M73.7026 96.4244C81.8303 96.4244 88.4192 89.8303 88.4192 81.696C88.4192 73.5617 81.8303 66.9676 73.7026 66.9676C65.5748 66.9676 58.986 73.5617 58.986 81.696C58.986 89.8303 65.5748 96.4244 73.7026 96.4244Z" fill="#FFB8B8"/>
<path d="M75.6041 102.404L65.3911 103.572C62.9076 107.097 61.2973 111.162 60.6931 115.433C60.0889 119.703 60.508 124.056 61.916 128.133L69.6223 150.443C69.6223 150.443 58.9247 171.906 58.9247 191.834C58.9247 211.761 38.5519 282.891 38.5519 282.891L67.2286 285.884L79.7413 210.111L96.9843 285.579L116.669 282.372L105.827 183.425L98.6628 150.857L98.3577 134.975C98.3577 134.975 101.404 123.057 93.7798 115.427L84.4717 102.446L75.6041 102.404Z" fill="#E4E4E2"/>
<path d="M147.602 154.87C147.573 154.119 147.379 153.384 147.034 152.716C146.689 152.048 146.203 151.464 145.608 151.005C145.014 150.545 144.326 150.222 143.593 150.058C142.86 149.893 142.1 149.892 141.367 150.053L85.8303 111.966L81.1206 122.105L137.482 156.55C137.835 157.765 138.621 158.809 139.691 159.483C140.761 160.158 142.041 160.416 143.288 160.209C144.535 160.002 145.664 159.344 146.459 158.36C147.254 157.376 147.661 156.134 147.602 154.87H147.602Z" fill="#FFB8B8"/>
<path d="M76.1253 124.519L97.0082 132.64L108.751 139.545L115.629 129.325L106.881 121.722L81.2462 106.113C79.3127 104.936 77.0052 104.536 74.7887 104.994C72.5722 105.452 70.6115 106.733 69.3017 108.581C67.9428 110.497 67.3913 112.871 67.7661 115.191C68.141 117.511 69.4122 119.59 71.3054 120.98L76.1253 124.519Z" fill="#E4E4E2"/>
<path d="M90.8577 76.4361H69.2322V67.002C73.9787 65.1147 78.6235 63.5097 81.4312 67.002C83.9313 67.002 86.3289 67.9959 88.0968 69.7652C89.8646 71.5344 90.8577 73.934 90.8577 76.436V76.4361Z" fill="#2F2E41"/>
<path d="M73.09 66.0598C60.162 66.1171 56.5432 82.2778 56.5432 91.4271C56.5432 96.5296 58.849 98.3547 62.4722 98.9721L63.7517 92.1423L66.7487 99.266C67.7665 99.2711 68.8357 99.2514 69.9442 99.2308L70.9603 97.1368L73.2262 99.1933C82.3016 99.2068 95.4898 98.3957 89.6366 91.4272C81.7954 82.0918 84.3585 66.01 73.09 66.0598Z" fill="#2F2E41"/>
<path d="M665.677 116.847C665.105 114.682 665.02 112.416 665.427 110.214C666.03 105.96 667.387 101.856 668.627 97.7433C669.868 93.6302 671.006 89.4361 671.149 85.1422C671.292 80.8481 670.362 76.3967 667.804 72.9467C665.245 69.4965 660.884 67.2357 656.64 67.8844C652.585 68.5042 649.044 72.1646 649.023 76.2259C648.298 77.5403 649.235 79.3352 650.57 80.1148C651.971 80.9326 653.659 81.0411 655.212 81.5061C656.737 81.9997 658.144 82.8032 659.344 83.8662C660.544 84.9292 661.512 86.2288 662.187 87.6836C663.519 90.6208 663.873 93.9085 663.198 97.0624C662.586 100.119 661.179 102.947 660.124 105.88C659.069 108.813 658.364 112.033 659.211 115.032C659.915 117.247 661.395 119.134 663.378 120.343C665.361 121.552 667.715 122.004 670.004 121.614C668.959 121.216 668.023 120.577 667.271 119.749C666.519 118.92 665.973 117.927 665.677 116.847Z" fill="#2F2E41"/>
<path d="M555.32 268.863C553.919 257.587 546.936 246.476 536.189 242.806C540.427 254.413 540.426 267.146 536.187 278.752C534.536 283.223 532.234 288.022 533.787 292.528C534.754 295.331 537.118 297.476 539.76 298.817C542.403 300.158 545.336 300.797 548.232 301.423L548.802 301.895C553.4 291.505 556.721 280.14 555.32 268.863Z" fill="#F0F0F0"/>
<path d="M536.083 243.019C542.341 250.037 546.23 258.849 547.199 268.205C547.443 270.215 547.369 272.252 546.98 274.239C546.538 276.163 545.59 277.933 544.233 279.366C542.995 280.727 541.571 281.976 540.685 283.615C540.244 284.46 539.987 285.39 539.93 286.342C539.873 287.294 540.018 288.248 540.355 289.14C541.137 291.385 542.679 293.215 544.248 294.952C545.991 296.88 547.831 298.856 548.572 301.413C548.662 301.723 549.137 301.565 549.047 301.256C547.759 296.807 543.444 294.28 541.386 290.274C540.426 288.404 540.023 286.234 540.923 284.26C541.71 282.534 543.177 281.245 544.443 279.877C545.787 278.499 546.773 276.813 547.315 274.965C547.804 273.004 547.957 270.974 547.765 268.961C547.407 264.425 546.337 259.972 544.597 255.768C542.637 250.958 539.869 246.519 536.414 242.643C536.2 242.404 535.87 242.781 536.083 243.019H536.083Z" fill="white"/>
<path d="M547.064 265.174C548.611 264.798 549.973 263.885 550.909 262.596C551.844 261.308 552.291 259.729 552.171 258.141C552.145 257.82 551.645 257.844 551.671 258.166C551.786 259.644 551.369 261.115 550.495 262.313C549.622 263.511 548.349 264.357 546.907 264.698C546.594 264.773 546.753 265.248 547.064 265.174V265.174Z" fill="white"/>
<path d="M544.952 278.758C542.159 277.089 540.097 274.428 539.177 271.305C539.087 270.996 538.612 271.153 538.702 271.462C539.665 274.71 541.816 277.475 544.727 279.205C545.004 279.37 545.228 278.922 544.952 278.758L544.952 278.758Z" fill="white"/>
<path d="M542.173 251.432C541.605 251.702 540.978 251.827 540.35 251.795C539.722 251.763 539.112 251.576 538.574 251.249C538.299 251.081 538.075 251.53 538.349 251.697C538.945 252.055 539.619 252.261 540.313 252.298C541.007 252.334 541.699 252.201 542.33 251.908C542.391 251.885 542.442 251.84 542.472 251.781C542.501 251.722 542.507 251.655 542.489 251.592C542.468 251.529 542.423 251.477 542.364 251.447C542.304 251.417 542.236 251.412 542.173 251.432Z" fill="white"/>
<path d="M503.434 262.948C503.603 263.057 503.772 263.167 503.941 263.282C506.204 264.771 508.343 266.442 510.335 268.278C510.492 268.417 510.648 268.561 510.8 268.705C515.554 273.179 519.436 278.498 522.25 284.391C523.368 286.737 524.305 289.165 525.055 291.653C526.089 295.09 526.938 298.898 528.987 301.709C529.197 302.005 529.426 302.287 529.671 302.555H548.183C548.225 302.533 548.268 302.516 548.31 302.495L549.049 302.529C549.019 302.398 548.986 302.263 548.956 302.132C548.939 302.056 548.918 301.98 548.901 301.904C548.888 301.853 548.876 301.802 548.867 301.756C548.863 301.739 548.859 301.722 548.855 301.709C548.846 301.663 548.833 301.62 548.825 301.578C548.639 300.821 548.448 300.065 548.251 299.308C548.251 299.304 548.251 299.304 548.246 299.3C546.8 293.52 544.673 287.932 541.911 282.654C541.826 282.497 541.742 282.337 541.649 282.18C540.37 279.844 538.902 277.616 537.261 275.519C536.358 274.373 535.398 273.274 534.384 272.226C531.76 269.522 528.727 267.248 525.397 265.488C518.757 261.98 511.07 260.635 503.974 262.779C503.793 262.833 503.615 262.888 503.434 262.948Z" fill="#F0F0F0"/>
<path d="M503.476 263.183C512.694 265.015 521.101 269.708 527.503 276.594C528.907 278.052 530.073 279.723 530.958 281.544C531.762 283.346 532.07 285.331 531.849 287.293C531.679 289.125 531.294 290.981 531.572 292.823C531.729 293.764 532.083 294.661 532.61 295.456C533.137 296.25 533.826 296.924 534.632 297.433C536.607 298.755 538.939 299.287 541.237 299.728C543.789 300.218 546.447 300.686 548.577 302.281C548.835 302.475 549.119 302.063 548.862 301.87C545.156 299.094 540.191 299.677 536.138 297.718C534.246 296.803 532.619 295.313 532.15 293.195C531.74 291.343 532.136 289.429 532.324 287.575C532.568 285.665 532.341 283.724 531.662 281.922C530.873 280.061 529.773 278.348 528.41 276.857C525.394 273.451 521.862 270.54 517.943 268.232C513.485 265.572 508.605 263.696 503.514 262.683C503.199 262.621 503.163 263.121 503.476 263.183L503.476 263.183Z" fill="white"/>
<path d="M525.572 274.255C526.58 273.024 527.119 271.473 527.091 269.881C527.062 268.288 526.47 266.758 525.418 265.563C525.204 265.322 524.82 265.642 525.034 265.884C526.015 266.995 526.567 268.421 526.59 269.904C526.614 271.386 526.106 272.829 525.16 273.97C524.955 274.218 525.368 274.502 525.572 274.255Z" fill="white"/>
<path d="M532.057 286.374C528.823 286.725 525.576 285.842 522.963 283.903C522.704 283.711 522.42 284.123 522.678 284.315C525.401 286.328 528.782 287.239 532.146 286.867C532.467 286.832 532.376 286.339 532.057 286.374Z" fill="white"/>
<path d="M513.399 266.231C513.108 266.789 512.683 267.266 512.163 267.619C511.642 267.972 511.042 268.19 510.416 268.253C510.095 268.285 510.187 268.777 510.505 268.746C511.196 268.673 511.859 268.431 512.435 268.042C513.011 267.654 513.484 267.13 513.811 266.516C513.846 266.461 513.86 266.394 513.848 266.329C513.836 266.264 513.8 266.207 513.748 266.168C513.693 266.13 513.626 266.116 513.56 266.127C513.495 266.139 513.437 266.176 513.399 266.231Z" fill="white"/>
<path d="M138.724 268.863C140.125 257.587 147.108 246.476 157.854 242.806C153.616 254.413 153.617 267.146 157.857 278.752C159.508 283.223 161.81 288.022 160.256 292.528C159.29 295.331 156.926 297.476 154.283 298.817C151.64 300.158 148.707 300.797 145.811 301.423L145.241 301.895C140.643 291.505 137.322 280.14 138.724 268.863Z" fill="#F0F0F0"/>
<path d="M157.961 243.019C151.703 250.037 147.813 258.849 146.845 268.205C146.6 270.215 146.674 272.252 147.064 274.239C147.505 276.163 148.454 277.933 149.81 279.366C151.049 280.727 152.472 281.976 153.358 283.615C153.799 284.46 154.057 285.39 154.114 286.342C154.171 287.294 154.026 288.248 153.689 289.14C152.907 291.385 151.365 293.215 149.796 294.952C148.053 296.88 146.212 298.856 145.471 301.413C145.382 301.723 144.907 301.565 144.996 301.256C146.285 296.807 150.6 294.28 152.658 290.274C153.618 288.404 154.021 286.234 153.121 284.26C152.334 282.534 150.866 281.245 149.601 279.877C148.257 278.499 147.271 276.813 146.728 274.965C146.239 273.004 146.087 270.974 146.278 268.961C146.637 264.425 147.706 259.972 149.447 255.768C151.407 250.958 154.174 246.519 157.63 242.643C157.844 242.404 158.173 242.781 157.961 243.019H157.961Z" fill="white"/>
<path d="M146.979 265.174C145.433 264.798 144.07 263.885 143.135 262.596C142.199 261.308 141.752 259.729 141.873 258.141C141.898 257.82 142.398 257.844 142.373 258.166C142.258 259.644 142.674 261.115 143.548 262.313C144.422 263.511 145.694 264.357 147.136 264.698C147.45 264.773 147.291 265.248 146.979 265.174V265.174Z" fill="white"/>
<path d="M149.092 278.758C151.885 277.089 153.947 274.428 154.866 271.305C154.957 270.996 155.432 271.153 155.341 271.462C154.378 274.71 152.227 277.475 149.317 279.205C149.04 279.37 148.816 278.922 149.092 278.758L149.092 278.758Z" fill="white"/>
<path d="M151.871 251.432C152.439 251.702 153.065 251.827 153.693 251.795C154.321 251.763 154.932 251.576 155.47 251.249C155.745 251.081 155.968 251.53 155.695 251.697C155.099 252.055 154.425 252.261 153.731 252.298C153.037 252.334 152.344 252.201 151.714 251.908C151.652 251.885 151.602 251.84 151.572 251.781C151.542 251.722 151.536 251.655 151.555 251.592C151.576 251.529 151.621 251.477 151.68 251.447C151.739 251.417 151.808 251.412 151.871 251.432Z" fill="white"/>
<path d="M190.61 262.948C190.441 263.057 190.272 263.167 190.103 263.282C187.84 264.771 185.701 266.442 183.708 268.278C183.552 268.417 183.396 268.561 183.244 268.705C178.49 273.179 174.607 278.498 171.794 284.391C170.676 286.737 169.739 289.165 168.989 291.653C167.954 295.09 167.105 298.898 165.057 301.709C164.846 302.005 164.618 302.287 164.373 302.555H145.861C145.818 302.533 145.776 302.516 145.734 302.495L144.995 302.529C145.024 302.398 145.058 302.263 145.088 302.132C145.105 302.056 145.126 301.98 145.143 301.904C145.155 301.853 145.168 301.802 145.176 301.756C145.181 301.739 145.185 301.722 145.189 301.709C145.198 301.663 145.21 301.62 145.219 301.578C145.405 300.821 145.596 300.065 145.793 299.308C145.793 299.304 145.793 299.304 145.797 299.3C147.244 293.52 149.371 287.932 152.133 282.654C152.217 282.497 152.302 282.337 152.395 282.18C153.674 279.844 155.141 277.616 156.783 275.519C157.686 274.373 158.646 273.274 159.659 272.226C162.284 269.522 165.317 267.248 168.647 265.488C175.287 261.98 182.973 260.635 190.069 262.779C190.251 262.833 190.428 262.888 190.61 262.948Z" fill="#F0F0F0"/>
<path d="M190.568 263.183C181.35 265.015 172.943 269.708 166.541 276.594C165.136 278.052 163.97 279.723 163.086 281.544C162.281 283.346 161.974 285.331 162.195 287.293C162.364 289.125 162.75 290.981 162.471 292.823C162.315 293.764 161.961 294.661 161.434 295.456C160.906 296.25 160.217 296.924 159.411 297.433C157.436 298.755 155.105 299.287 152.807 299.728C150.255 300.218 147.597 300.686 145.467 302.281C145.209 302.475 144.924 302.063 145.182 301.87C148.887 299.094 153.853 299.677 157.906 297.718C159.797 296.803 161.425 295.313 161.893 293.195C162.303 291.343 161.907 289.429 161.719 287.575C161.476 285.665 161.703 283.724 162.381 281.922C163.171 280.061 164.27 278.348 165.634 276.857C168.649 273.451 172.181 270.54 176.101 268.232C180.559 265.572 185.439 263.696 190.53 262.683C190.845 262.621 190.881 263.121 190.568 263.183H190.568Z" fill="white"/>
<path d="M168.472 274.255C167.463 273.024 166.925 271.473 166.953 269.881C166.981 268.288 167.574 266.758 168.626 265.563C168.839 265.322 169.224 265.642 169.01 265.884C168.028 266.995 167.476 268.421 167.453 269.904C167.43 271.386 167.937 272.829 168.883 273.97C169.088 274.218 168.676 274.502 168.472 274.255Z" fill="white"/>
<path d="M161.987 286.374C165.221 286.725 168.468 285.842 171.081 283.903C171.339 283.711 171.624 284.123 171.366 284.315C168.643 286.328 165.262 287.239 161.897 286.867C161.577 286.832 161.668 286.339 161.987 286.374Z" fill="white"/>
<path d="M180.644 266.231C180.935 266.789 181.36 267.266 181.881 267.619C182.402 267.972 183.002 268.19 183.628 268.253C183.949 268.285 183.857 268.777 183.538 268.746C182.847 268.673 182.185 268.431 181.609 268.042C181.032 267.654 180.56 267.13 180.233 266.516C180.197 266.461 180.184 266.394 180.196 266.329C180.207 266.264 180.243 266.207 180.296 266.168C180.351 266.13 180.418 266.116 180.483 266.127C180.548 266.139 180.606 266.176 180.644 266.231H180.644Z" fill="white"/>
</svg>
